%TF.GenerationSoftware,KiCad,Pcbnew,8.0.0-8.0.0-1~ubuntu23.10.1*%
%TF.CreationDate,2024-03-08T09:57:00+02:00*%
%TF.ProjectId,reversible,72657665-7273-4696-926c-652e6b696361,rev?*%
%TF.SameCoordinates,Original*%
%TF.FileFunction,Legend,Bot*%
%TF.FilePolarity,Positive*%
%FSLAX46Y46*%
G04 Gerber Fmt 4.6, Leading zero omitted, Abs format (unit mm)*
G04 Created by KiCad (PCBNEW 8.0.0-8.0.0-1~ubuntu23.10.1) date 2024-03-08 09:57:00*
%MOMM*%
%LPD*%
G01*
G04 APERTURE LIST*
%ADD10C,0.150000*%
%ADD11C,1.524000*%
G04 APERTURE END LIST*
D10*
X58925874Y-46868216D02*
X59196807Y-46481169D01*
X59390331Y-46868216D02*
X59390331Y-46055416D01*
X59390331Y-46055416D02*
X59080693Y-46055416D01*
X59080693Y-46055416D02*
X59003283Y-46094121D01*
X59003283Y-46094121D02*
X58964578Y-46132826D01*
X58964578Y-46132826D02*
X58925874Y-46210235D01*
X58925874Y-46210235D02*
X58925874Y-46326350D01*
X58925874Y-46326350D02*
X58964578Y-46403759D01*
X58964578Y-46403759D02*
X59003283Y-46442464D01*
X59003283Y-46442464D02*
X59080693Y-46481169D01*
X59080693Y-46481169D02*
X59390331Y-46481169D01*
X58577531Y-46442464D02*
X58306597Y-46442464D01*
X58190483Y-46868216D02*
X58577531Y-46868216D01*
X58577531Y-46868216D02*
X58577531Y-46055416D01*
X58577531Y-46055416D02*
X58190483Y-46055416D01*
X57880845Y-46829512D02*
X57764731Y-46868216D01*
X57764731Y-46868216D02*
X57571207Y-46868216D01*
X57571207Y-46868216D02*
X57493798Y-46829512D01*
X57493798Y-46829512D02*
X57455093Y-46790807D01*
X57455093Y-46790807D02*
X57416388Y-46713397D01*
X57416388Y-46713397D02*
X57416388Y-46635988D01*
X57416388Y-46635988D02*
X57455093Y-46558578D01*
X57455093Y-46558578D02*
X57493798Y-46519873D01*
X57493798Y-46519873D02*
X57571207Y-46481169D01*
X57571207Y-46481169D02*
X57726026Y-46442464D01*
X57726026Y-46442464D02*
X57803436Y-46403759D01*
X57803436Y-46403759D02*
X57842141Y-46365054D01*
X57842141Y-46365054D02*
X57880845Y-46287645D01*
X57880845Y-46287645D02*
X57880845Y-46210235D01*
X57880845Y-46210235D02*
X57842141Y-46132826D01*
X57842141Y-46132826D02*
X57803436Y-46094121D01*
X57803436Y-46094121D02*
X57726026Y-46055416D01*
X57726026Y-46055416D02*
X57532503Y-46055416D01*
X57532503Y-46055416D02*
X57416388Y-46094121D01*
X57068046Y-46442464D02*
X56797112Y-46442464D01*
X56680998Y-46868216D02*
X57068046Y-46868216D01*
X57068046Y-46868216D02*
X57068046Y-46055416D01*
X57068046Y-46055416D02*
X56680998Y-46055416D01*
X56448770Y-46055416D02*
X55984313Y-46055416D01*
X56216541Y-46868216D02*
X56216541Y-46055416D01*
%TO.C,D22*%
X164700000Y-69002540D02*
X163800000Y-69002540D01*
X167000000Y-68302540D02*
X167000000Y-69702540D01*
X167000000Y-69002540D02*
X167900000Y-68302540D01*
X167900000Y-68302540D02*
X167900000Y-69702540D01*
X167900000Y-69702540D02*
X167000000Y-69002540D01*
X170300000Y-69002540D02*
X171300000Y-69002540D01*
%TO.C,D6*%
X107700000Y-48500000D02*
X106800000Y-48500000D01*
X110000000Y-47800000D02*
X110000000Y-49200000D01*
X110000000Y-48500000D02*
X110900000Y-47800000D01*
X110900000Y-47800000D02*
X110900000Y-49200000D01*
X110900000Y-49200000D02*
X110000000Y-48500000D01*
X113300000Y-48500000D02*
X114300000Y-48500000D01*
%TO.C,D15*%
X88700000Y-126000000D02*
X87800000Y-126000000D01*
X91000000Y-125300000D02*
X91000000Y-126700000D01*
X91000000Y-126000000D02*
X91900000Y-125300000D01*
X91900000Y-125300000D02*
X91900000Y-126700000D01*
X91900000Y-126700000D02*
X91000000Y-126000000D01*
X94300000Y-126000000D02*
X95300000Y-126000000D01*
%TO.C,D24*%
X164700000Y-107000000D02*
X163800000Y-107000000D01*
X167000000Y-106300000D02*
X167000000Y-107700000D01*
X167000000Y-107000000D02*
X167900000Y-106300000D01*
X167900000Y-106300000D02*
X167900000Y-107700000D01*
X167900000Y-107700000D02*
X167000000Y-107000000D01*
X170300000Y-107000000D02*
X171300000Y-107000000D01*
%TO.C,D10*%
X69700000Y-126002540D02*
X68800000Y-126002540D01*
X72000000Y-125302540D02*
X72000000Y-126702540D01*
X72000001Y-126002540D02*
X72900000Y-125302540D01*
X72900000Y-125302540D02*
X72900000Y-126702540D01*
X72900000Y-126702540D02*
X72000001Y-126002540D01*
X75300000Y-126002540D02*
X76300000Y-126002540D01*
%TO.C,D4*%
X88700000Y-107002540D02*
X87800000Y-107002540D01*
X91000000Y-106302540D02*
X91000000Y-107702540D01*
X91000000Y-107002540D02*
X91900000Y-106302540D01*
X91900000Y-106302540D02*
X91900000Y-107702540D01*
X91900000Y-107702540D02*
X91000000Y-107002540D01*
X94300000Y-107002540D02*
X95300000Y-107002540D01*
%TO.C,D19*%
X145700000Y-105502540D02*
X144800000Y-105502540D01*
X148000000Y-104802540D02*
X148000000Y-106202540D01*
X148000000Y-105502540D02*
X148900000Y-104802540D01*
X148900000Y-104802540D02*
X148900000Y-106202540D01*
X148900000Y-106202540D02*
X148000000Y-105502540D01*
X151300000Y-105502540D02*
X152300000Y-105502540D01*
%TO.C,D9*%
X107700000Y-105502540D02*
X106800000Y-105502540D01*
X110000000Y-104802540D02*
X110000000Y-106202540D01*
X110000000Y-105502540D02*
X110900000Y-104802540D01*
X110900000Y-104802540D02*
X110900000Y-106202540D01*
X110900000Y-106202540D02*
X110000000Y-105502540D01*
X113300000Y-105502540D02*
X114300000Y-105502540D01*
%TO.C,D17*%
X145700000Y-67500000D02*
X144800000Y-67500000D01*
X148000000Y-66800000D02*
X148000000Y-68200000D01*
X148000000Y-67500000D02*
X148900000Y-66800000D01*
X148900000Y-66800000D02*
X148900000Y-68200000D01*
X148900000Y-68200000D02*
X148000000Y-67500000D01*
X151300000Y-67500000D02*
X152300000Y-67500000D01*
%TO.C,D16*%
X145700000Y-48500000D02*
X144800000Y-48500000D01*
X148000000Y-47800000D02*
X148000000Y-49200000D01*
X148000000Y-48500000D02*
X148900000Y-47800000D01*
X148900000Y-47800000D02*
X148900000Y-49200000D01*
X148900000Y-49200000D02*
X148000000Y-48500000D01*
X151300000Y-48500000D02*
X152300000Y-48500000D01*
%TO.C,D2*%
X88900000Y-69000000D02*
X88000000Y-69000000D01*
X91200000Y-68300000D02*
X91200000Y-69700000D01*
X91200000Y-69000000D02*
X92100000Y-68300000D01*
X92100000Y-68300000D02*
X92100000Y-69700000D01*
X92100000Y-69700000D02*
X91200000Y-69000000D01*
X94500000Y-69000000D02*
X95500000Y-69000000D01*
%TO.C,P1*%
X61190000Y-86229620D02*
X71350000Y-86229620D01*
X61190000Y-88769620D02*
X61190000Y-86229620D01*
X71350000Y-86229620D02*
X71350000Y-88769620D01*
X71350000Y-88769620D02*
X61190000Y-88769620D01*
%TO.C,D12*%
X126700000Y-66000000D02*
X125800000Y-66000000D01*
X129000000Y-65300000D02*
X129000000Y-66700000D01*
X129000000Y-66000000D02*
X129900000Y-65300000D01*
X129900000Y-65300000D02*
X129900000Y-66700000D01*
X129900000Y-66700000D02*
X129000000Y-66000000D01*
X132300000Y-66000000D02*
X133300000Y-66000000D01*
%TO.C,D18*%
X145700000Y-86500000D02*
X144800000Y-86500000D01*
X148000000Y-85800000D02*
X148000000Y-87200000D01*
X148000000Y-86500000D02*
X148900000Y-85800000D01*
X148900000Y-85800000D02*
X148900000Y-87200000D01*
X148900000Y-87200000D02*
X148000000Y-86500000D01*
X151300000Y-86500000D02*
X152300000Y-86500000D01*
%TO.C,D5*%
X63700000Y-107000000D02*
X62800000Y-107000000D01*
X66000000Y-106300000D02*
X66000000Y-107700000D01*
X66000000Y-107000000D02*
X66900000Y-106300000D01*
X66900000Y-106300000D02*
X66900000Y-107700000D01*
X66900000Y-107700000D02*
X66000000Y-107000000D01*
X69300000Y-107000000D02*
X70300000Y-107000000D01*
%TO.C,D11*%
X126700000Y-47000000D02*
X125800000Y-47000000D01*
X129000000Y-46300000D02*
X129000000Y-47700000D01*
X129000000Y-47000000D02*
X129900000Y-46300000D01*
X129900000Y-46300000D02*
X129900000Y-47700000D01*
X129900000Y-47700000D02*
X129000000Y-47000000D01*
X132300000Y-47000000D02*
X133300000Y-47000000D01*
%TO.C,D28*%
X183700000Y-89500000D02*
X182800000Y-89500000D01*
X186000000Y-88800000D02*
X186000000Y-90200000D01*
X186000000Y-89500000D02*
X186900000Y-88800000D01*
X186900000Y-88800000D02*
X186900000Y-90200000D01*
X186900000Y-90200000D02*
X186000000Y-89500000D01*
X189300000Y-89500000D02*
X190300000Y-89500000D01*
%TO.C,D27*%
X183700000Y-70502540D02*
X182800000Y-70502540D01*
X186000000Y-69802540D02*
X186000000Y-71202540D01*
X186000000Y-70502540D02*
X186900000Y-69802540D01*
X186900000Y-69802540D02*
X186900000Y-71202540D01*
X186900000Y-71202540D02*
X186000000Y-70502540D01*
X189300000Y-70502540D02*
X190300000Y-70502540D01*
%TO.C,D25*%
X126700000Y-126000000D02*
X125800000Y-126000000D01*
X129000000Y-125300000D02*
X129000000Y-126700000D01*
X129000000Y-126000000D02*
X129900000Y-125300000D01*
X129900000Y-125300000D02*
X129900000Y-126700000D01*
X129900000Y-126700000D02*
X129000000Y-126000000D01*
X132300000Y-126000000D02*
X133300000Y-126000000D01*
%TO.C,D21*%
X164700000Y-50000000D02*
X163800000Y-50000000D01*
X167000000Y-49300000D02*
X167000000Y-50700000D01*
X167000000Y-50000000D02*
X167900000Y-49300000D01*
X167900000Y-49300000D02*
X167900000Y-50700000D01*
X167900000Y-50700000D02*
X167000000Y-50000000D01*
X170300000Y-50000000D02*
X171300000Y-50000000D01*
%TO.C,C1*%
X78200000Y-57380000D02*
X80800000Y-57380000D01*
X78200000Y-63780000D02*
X78200000Y-57380000D01*
X79500000Y-57380000D02*
X79500000Y-56680000D01*
X79500000Y-64480000D02*
X79500000Y-63780000D01*
X80800000Y-57380000D02*
X80800000Y-63780000D01*
X80800000Y-63780000D02*
X78200000Y-63780000D01*
%TO.C,U1*%
X56431185Y-47994255D02*
X74211185Y-47994255D01*
X56431185Y-50534255D02*
X58971185Y-50534255D01*
X56431185Y-81014255D02*
X56431185Y-47994255D01*
X56431185Y-81014255D02*
X56431185Y-50534255D01*
X58971185Y-50534255D02*
X58971185Y-81014255D01*
X58971185Y-81014255D02*
X56431185Y-81014255D01*
X71671185Y-50534255D02*
X74211185Y-50534255D01*
X71671185Y-81014255D02*
X71671185Y-50534255D01*
X74211185Y-47994255D02*
X74211185Y-81014255D01*
X74211185Y-50534255D02*
X74211185Y-81014255D01*
X74211185Y-81014255D02*
X71671185Y-81014255D01*
%TO.C,D26*%
X183700000Y-51502540D02*
X182800000Y-51502540D01*
X186000000Y-50802540D02*
X186000000Y-52202540D01*
X186000000Y-51502540D02*
X186900000Y-50802540D01*
X186900000Y-50802540D02*
X186900000Y-52202540D01*
X186900000Y-52202540D02*
X186000000Y-51502540D01*
X189300000Y-51502540D02*
X190300000Y-51502540D01*
%TO.C,D29*%
X183700000Y-108502540D02*
X182800000Y-108502540D01*
X186000000Y-107802540D02*
X186000000Y-109202540D01*
X186000000Y-108502540D02*
X186900000Y-107802540D01*
X186900000Y-107802540D02*
X186900000Y-109202540D01*
X186900000Y-109202540D02*
X186000000Y-108502540D01*
X189300000Y-108502540D02*
X190300000Y-108502540D01*
%TO.C,D7*%
X107700000Y-67502540D02*
X106800000Y-67502540D01*
X110000000Y-66802540D02*
X110000000Y-68202540D01*
X110000000Y-67502540D02*
X110900000Y-66802540D01*
X110900000Y-66802540D02*
X110900000Y-68202540D01*
X110900000Y-68202540D02*
X110000000Y-67502540D01*
X113300000Y-67502540D02*
X114300000Y-67502540D01*
%TO.C,D30*%
X63500000Y-91500000D02*
X62600000Y-91500000D01*
X65800000Y-90800000D02*
X65800000Y-92200000D01*
X65800000Y-91500000D02*
X66700000Y-90800000D01*
X66700000Y-90800000D02*
X66700000Y-92200000D01*
X66700000Y-92200000D02*
X65800000Y-91500000D01*
X69100000Y-91500000D02*
X70100000Y-91500000D01*
%TO.C,D14*%
X126700000Y-104000000D02*
X125800000Y-104000000D01*
X129000000Y-103300000D02*
X129000000Y-104700000D01*
X129000000Y-104000000D02*
X129900000Y-103300000D01*
X129900000Y-103300000D02*
X129900000Y-104700000D01*
X129900000Y-104700000D02*
X129000000Y-104000000D01*
X132300000Y-104000000D02*
X133300000Y-104000000D01*
%TO.C,D8*%
X107700000Y-86502540D02*
X106800000Y-86502540D01*
X110000000Y-85802540D02*
X110000000Y-87202540D01*
X110000000Y-86502540D02*
X110900000Y-85802540D01*
X110900000Y-85802540D02*
X110900000Y-87202540D01*
X110900000Y-87202540D02*
X110000000Y-86502540D01*
X113300000Y-86502540D02*
X114300000Y-86502540D01*
%TO.C,J1*%
X55300000Y-102325000D02*
X55300000Y-97375000D01*
X57200000Y-96875000D02*
X57200000Y-97375000D01*
X57200000Y-96875000D02*
X69200000Y-96875000D01*
X57200000Y-97375000D02*
X55300000Y-97375000D01*
X57200000Y-102375000D02*
X55300000Y-102375000D01*
X57200000Y-102875000D02*
X57200000Y-102375000D01*
X69200000Y-96875000D02*
X69200000Y-102875000D01*
X69200000Y-102875000D02*
X57200000Y-102875000D01*
%TO.C,D20*%
X107700000Y-126000000D02*
X106800000Y-126000000D01*
X110000000Y-125300000D02*
X110000000Y-126700000D01*
X110000000Y-126000000D02*
X110900000Y-125300000D01*
X110900000Y-125300000D02*
X110900000Y-126700000D01*
X110900000Y-126700000D02*
X110000000Y-126000000D01*
X113300000Y-126000000D02*
X114300000Y-126000000D01*
%TO.C,C2*%
X78200000Y-70880000D02*
X80800000Y-70880000D01*
X78200000Y-77280000D02*
X78200000Y-70880000D01*
X79500000Y-70880000D02*
X79500000Y-70180000D01*
X79500000Y-77980000D02*
X79500000Y-77280000D01*
X80800000Y-70880000D02*
X80800000Y-77280000D01*
X80800000Y-77280000D02*
X78200000Y-77280000D01*
%TO.C,D1*%
X88700000Y-50000000D02*
X87800000Y-50000000D01*
X91000000Y-49300000D02*
X91000000Y-50700000D01*
X91000000Y-50000000D02*
X91900000Y-49300000D01*
X91900000Y-49300000D02*
X91900000Y-50700000D01*
X91900000Y-50700000D02*
X91000000Y-50000000D01*
X94300000Y-50000000D02*
X95300000Y-50000000D01*
%TO.C,D3*%
X88700000Y-88002540D02*
X87800000Y-88002540D01*
X91000000Y-87302540D02*
X91000000Y-88702540D01*
X91000000Y-88002540D02*
X91900000Y-87302540D01*
X91900000Y-87302540D02*
X91900000Y-88702540D01*
X91900000Y-88702540D02*
X91000000Y-88002540D01*
X94300000Y-88002540D02*
X95300000Y-88002540D01*
%TO.C,D23*%
X164700000Y-88000000D02*
X163800000Y-88000000D01*
X167000000Y-87300000D02*
X167000000Y-88700000D01*
X167000000Y-88000000D02*
X167900000Y-87300000D01*
X167900000Y-87300000D02*
X167900000Y-88700000D01*
X167900000Y-88700000D02*
X167000000Y-88000000D01*
X170300000Y-88000000D02*
X171300000Y-88000000D01*
%TO.C,D13*%
X126700000Y-85002540D02*
X125800000Y-85002540D01*
X129000000Y-84302540D02*
X129000000Y-85702540D01*
X129000000Y-85002540D02*
X129900000Y-84302540D01*
X129900000Y-84302540D02*
X129900000Y-85702540D01*
X129900000Y-85702540D02*
X129000000Y-85002540D01*
X132300000Y-85002540D02*
X133300000Y-85002540D01*
%TO.C,JP8*%
X64111000Y-83357000D02*
X65889000Y-83357000D01*
X64111000Y-85643000D02*
X64111000Y-83357000D01*
X65889000Y-83357000D02*
X65889000Y-85643000D01*
X65889000Y-85643000D02*
X64111000Y-85643000D01*
%TO.C,JP1*%
X59357380Y-45611000D02*
X61643380Y-45611000D01*
X59357380Y-47389000D02*
X59357380Y-45611000D01*
X61643380Y-45611000D02*
X61643380Y-47389000D01*
X61643380Y-47389000D02*
X59357380Y-47389000D01*
%TO.C,JP10*%
X69111000Y-83356240D02*
X70889000Y-83356240D01*
X69111000Y-85642240D02*
X69111000Y-83356240D01*
X70889000Y-83356240D02*
X70889000Y-85642240D01*
X70889000Y-85642240D02*
X69111000Y-85642240D01*
%TO.C,JP12*%
X57111000Y-83356620D02*
X58889000Y-83356620D01*
X57111000Y-85642620D02*
X57111000Y-83356620D01*
X58889000Y-83356620D02*
X58889000Y-85642620D01*
X58889000Y-85642620D02*
X57111000Y-85642620D01*
%TO.C,JP7*%
X61611000Y-83357380D02*
X63389000Y-83357380D01*
X61611000Y-85643380D02*
X61611000Y-83357380D01*
X63389000Y-83357380D02*
X63389000Y-85643380D01*
X63389000Y-85643380D02*
X61611000Y-85643380D01*
%TO.C,JP9*%
X66611000Y-83356620D02*
X68389000Y-83356620D01*
X66611000Y-85642620D02*
X66611000Y-83356620D01*
X68389000Y-83356620D02*
X68389000Y-85642620D01*
X68389000Y-85642620D02*
X66611000Y-85642620D01*
%TD*%
D11*
%TO.C,U1*%
X74240000Y-53000000D03*
X74240000Y-55540000D03*
X74240000Y-58080000D03*
X74240000Y-60620000D03*
X74240000Y-63160000D03*
X74240000Y-65700000D03*
X74240000Y-68240000D03*
X74240000Y-70780000D03*
X74240000Y-73320000D03*
X74240000Y-75860000D03*
X74240000Y-78400000D03*
X74240000Y-80940000D03*
X59000000Y-80940000D03*
X59000000Y-78400000D03*
X59000000Y-75860000D03*
X59000000Y-73320000D03*
X59000000Y-70780000D03*
X59000000Y-68240000D03*
X59000000Y-65700000D03*
X59000000Y-63160000D03*
X59000000Y-60620000D03*
X59000000Y-58080000D03*
X59000000Y-55540000D03*
X59000000Y-53000000D03*
%TD*%
M02*
