M48
; DRILL file {KiCad 8.0.0-8.0.0-1~ubuntu23.10.1} date 2024-03-08T09:59:04+0200
; FORMAT={-:-/ absolute / inch / decimal}
; #@! TF.CreationDate,2024-03-08T09:59:04+02:00
; #@! TF.GenerationSoftware,Kicad,Pcbnew,8.0.0-8.0.0-1~ubuntu23.10.1
; #@! TF.FileFunction,Plated,1,2,PTH
FMAT,2
INCH
; #@! TA.AperFunction,Plated,PTH,ViaDrill
T1C0.0118
; #@! TA.AperFunction,Plated,PTH,ComponentDrill
T2C0.0118
; #@! TA.AperFunction,Plated,PTH,ComponentDrill
T3C0.0157
; #@! TA.AperFunction,Plated,PTH,ComponentDrill
T4C0.0315
; #@! TA.AperFunction,Plated,PTH,ComponentDrill
T5C0.0320
; #@! TA.AperFunction,Plated,PTH,ComponentDrill
T6C0.0394
; #@! TA.AperFunction,Plated,PTH,ComponentDrill
T7C0.0591
%
G90
G05
T1
X2.2299Y-3.1693
X2.2441Y-2.2835
X2.2441Y-2.3819
X2.2835Y-3.2677
X2.3622Y-1.8898
X2.3646Y-3.0395
X2.3819Y-2.7795
X2.3819Y-3.3661
X2.4016Y-2.3031
X2.4197Y-3.4031
X2.4409Y-2.0866
X2.5Y-2.2047
X2.5Y-2.4632
X2.5Y-2.6378
X2.5Y-3.8583
X2.5Y-3.937
X2.5591Y-2.4159
X2.5598Y-3.252
X2.6157Y-3.3071
X2.6181Y-2.6378
X2.6575Y-3.248
X2.6969Y-2.5394
X2.7362Y-2.6378
X2.7756Y-2.0866
X2.7756Y-2.7165
X2.7953Y-2.3031
X2.7953Y-2.8346
X2.8029Y-2.4417
X2.8095Y-2.9473
X2.815Y-3.0866
X2.8238Y-3.054
X2.8246Y-2.9866
X2.8346Y-3.4055
X2.8504Y-3.185
X2.874Y-3.2102
X2.8937Y-3.3615
X2.8937Y-3.5827
X2.9173Y-3.9567
X2.9528Y-3.878
X2.9724Y-3.248
X2.9882Y-3.8386
X3.0227Y-2.6427
X3.3268Y-2.6378
X3.3268Y-4.8425
X4.0354Y-4.8661
X4.0748Y-2.5787
X4.8031Y-4.9016
X7.0669Y-3.0709
T3
X2.5433Y-3.6024
X2.5512Y-4.2126
X2.6772Y-3.6024
X2.685Y-4.2126
X2.7874Y-4.9607
X2.9213Y-4.9607
X3.5354Y-1.9685
X3.5354Y-3.4647
X3.5354Y-4.2127
X3.5354Y-4.9606
X3.5433Y-2.7165
X3.6693Y-1.9685
X3.6693Y-3.4647
X3.6693Y-4.2127
X3.6693Y-4.9606
X3.6772Y-2.7165
X4.2835Y-1.9094
X4.2835Y-2.6576
X4.2835Y-3.4056
X4.2835Y-4.1536
X4.2835Y-4.9606
X4.4173Y-1.9094
X4.4173Y-2.6576
X4.4173Y-3.4056
X4.4173Y-4.1536
X4.4173Y-4.9606
X5.0315Y-1.8504
X5.0315Y-2.5984
X5.0315Y-3.3466
X5.0315Y-4.0945
X5.0315Y-4.9606
X5.1654Y-1.8504
X5.1654Y-2.5984
X5.1654Y-3.3466
X5.1654Y-4.0945
X5.1654Y-4.9606
X5.7795Y-1.9094
X5.7795Y-2.6575
X5.7795Y-3.4055
X5.7795Y-4.1536
X5.9134Y-1.9094
X5.9134Y-2.6575
X5.9134Y-3.4055
X5.9134Y-4.1536
X6.5276Y-1.9685
X6.5276Y-2.7166
X6.5276Y-3.4646
X6.5276Y-4.2126
X6.6614Y-1.9685
X6.6614Y-2.7166
X6.6614Y-3.4646
X6.6614Y-4.2126
X7.2756Y-2.0277
X7.2756Y-2.7757
X7.2756Y-3.5236
X7.2756Y-4.2718
X7.4094Y-2.0277
X7.4094Y-2.7757
X7.4094Y-3.5236
X7.4094Y-4.2718
T4
X3.1102Y-3.472
X3.1102Y-3.772
X3.1102Y-3.8929
X3.1102Y-4.1929
T5
X2.2717Y-2.0395
X2.2717Y-2.1395
X2.2717Y-2.2395
X2.2717Y-2.3395
X2.2717Y-2.4395
X2.2717Y-2.5395
X2.2717Y-2.6395
X2.2717Y-2.7395
X2.2717Y-2.8395
X2.2717Y-2.9395
X2.2717Y-3.0395
X2.2717Y-3.1395
X2.3228Y-2.0866
X2.3228Y-2.1866
X2.3228Y-2.2866
X2.3228Y-2.3866
X2.3228Y-2.4866
X2.3228Y-2.5866
X2.3228Y-2.6866
X2.3228Y-2.7866
X2.3228Y-2.8866
X2.3228Y-2.9866
X2.3228Y-3.0866
X2.3228Y-3.1866
X2.4591Y-3.4449
X2.5591Y-3.4449
X2.6591Y-3.4449
X2.7591Y-3.4449
X2.8717Y-2.0395
X2.8717Y-2.1395
X2.8717Y-2.2395
X2.8717Y-2.3395
X2.8717Y-2.4395
X2.8717Y-2.5395
X2.8717Y-2.6395
X2.8717Y-2.7395
X2.8717Y-2.8395
X2.8717Y-2.9395
X2.8717Y-3.0395
X2.8717Y-3.1395
X2.9228Y-2.0866
X2.9228Y-2.1866
X2.9228Y-2.2866
X2.9228Y-2.3866
X2.9228Y-2.4866
X2.9228Y-2.5866
X2.9228Y-2.6866
X2.9228Y-2.7866
X2.9228Y-2.8866
X2.9228Y-2.9866
X2.9228Y-3.0866
X2.9228Y-3.1866
T6
X2.4134Y-3.6023
X2.4213Y-4.2125
X2.503Y-2.3098
X2.503Y-2.8807
X2.6014Y-2.3098
X2.6575Y-4.9606
X2.6998Y-2.3098
X2.6998Y-2.8807
X2.8134Y-3.6023
X2.8213Y-4.2125
X3.0575Y-4.9606
X3.1299Y-2.185
X3.1299Y-2.585
X3.1299Y-2.7165
X3.1299Y-3.1165
X3.4055Y-1.9684
X3.4055Y-3.4646
X3.4055Y-4.2126
X3.4055Y-4.9605
X3.4134Y-2.7164
X3.8055Y-1.9684
X3.8055Y-3.4646
X3.8055Y-4.2126
X3.8055Y-4.9605
X3.8134Y-2.7164
X4.1535Y-1.9093
X4.1535Y-2.6575
X4.1535Y-3.4055
X4.1535Y-4.1535
X4.1535Y-4.9605
X4.5535Y-1.9093
X4.5535Y-2.6575
X4.5535Y-3.4055
X4.5535Y-4.1535
X4.5535Y-4.9605
X4.9016Y-1.8503
X4.9016Y-2.5983
X4.9016Y-3.3465
X4.9016Y-4.0944
X4.9016Y-4.9605
X5.3016Y-1.8503
X5.3016Y-2.5983
X5.3016Y-3.3465
X5.3016Y-4.0944
X5.3016Y-4.9605
X5.6496Y-1.9093
X5.6496Y-2.6574
X5.6496Y-3.4054
X5.6496Y-4.1535
X6.0496Y-1.9093
X6.0496Y-2.6574
X6.0496Y-3.4054
X6.0496Y-4.1535
X6.3976Y-1.9684
X6.3976Y-2.7165
X6.3976Y-3.4645
X6.3976Y-4.2125
X6.7976Y-1.9684
X6.7976Y-2.7165
X6.7976Y-3.4645
X6.7976Y-4.2125
X7.1457Y-2.0276
X7.1457Y-2.7756
X7.1457Y-3.5235
X7.1457Y-4.2717
X7.5457Y-2.0276
X7.5457Y-2.7756
X7.5457Y-3.5235
X7.5457Y-4.2717
T7
X2.4449Y-4.4016
X2.5157Y-4.3602
X2.685Y-5.1496
X2.7205Y-4.3602
X2.7559Y-5.1083
X2.7913Y-4.4016
X2.9606Y-5.1083
X3.0315Y-5.1496
X3.4291Y-2.1575
X3.4291Y-2.9055
X3.4291Y-3.6535
X3.4291Y-4.4016
X3.4291Y-5.1496
X3.5Y-2.1161
X3.5Y-2.8642
X3.5Y-3.6122
X3.5Y-4.3602
X3.5Y-5.1083
X3.7047Y-2.1161
X3.7047Y-2.8642
X3.7047Y-3.6122
X3.7047Y-4.3602
X3.7047Y-5.1083
X3.7756Y-2.1575
X3.7756Y-2.9055
X3.7756Y-3.6535
X3.7756Y-4.4016
X3.7756Y-5.1496
X4.1772Y-2.0984
X4.1772Y-2.8465
X4.1772Y-3.5945
X4.1772Y-4.3425
X4.1772Y-5.1496
X4.248Y-2.0571
X4.248Y-2.8051
X4.248Y-3.5531
X4.248Y-4.3012
X4.248Y-5.1083
X4.4528Y-2.0571
X4.4528Y-2.8051
X4.4528Y-3.5531
X4.4528Y-4.3012
X4.4528Y-5.1083
X4.5236Y-2.0984
X4.5236Y-2.8465
X4.5236Y-3.5945
X4.5236Y-4.3425
X4.5236Y-5.1496
X4.9252Y-2.0394
X4.9252Y-2.7874
X4.9252Y-3.5354
X4.9252Y-4.2835
X4.9252Y-5.1496
X4.9961Y-1.998
X4.9961Y-2.7461
X4.9961Y-3.4941
X4.9961Y-4.2421
X4.9961Y-5.1083
X5.2008Y-1.998
X5.2008Y-2.7461
X5.2008Y-3.4941
X5.2008Y-4.2421
X5.2008Y-5.1083
X5.2717Y-2.0394
X5.2717Y-2.7874
X5.2717Y-3.5354
X5.2717Y-4.2835
X5.2717Y-5.1496
X5.6732Y-2.0984
X5.6732Y-2.8465
X5.6732Y-3.5984
X5.6732Y-4.3425
X5.7441Y-2.0571
X5.7441Y-2.8051
X5.7441Y-3.5571
X5.7441Y-4.3012
X5.9488Y-2.0571
X5.9488Y-2.8051
X5.9488Y-3.5571
X5.9488Y-4.3012
X6.0197Y-2.0984
X6.0197Y-2.8465
X6.0197Y-3.5984
X6.0197Y-4.3425
X6.4213Y-2.1575
X6.4213Y-2.9055
X6.4213Y-3.6535
X6.4213Y-4.4016
X6.4921Y-2.1161
X6.4921Y-2.8642
X6.4921Y-3.6122
X6.4921Y-4.3602
X6.6969Y-2.1161
X6.6969Y-2.8642
X6.6969Y-3.6122
X6.6969Y-4.3602
X6.7677Y-2.1575
X6.7677Y-2.9055
X6.7677Y-3.6535
X6.7677Y-4.4016
X7.1693Y-2.9646
X7.1693Y-3.7126
X7.1693Y-4.4606
X7.1732Y-2.2165
X7.2402Y-2.9232
X7.2402Y-3.6713
X7.2402Y-4.4193
X7.2441Y-2.1752
X7.4449Y-2.9232
X7.4449Y-3.6713
X7.4449Y-4.4193
X7.4488Y-2.1752
X7.5157Y-2.9646
X7.5157Y-3.7126
X7.5157Y-4.4606
X7.5197Y-2.2165
T2
G00X2.3563Y-3.7805
M15
G01X2.4075Y-3.7805
M16
G05
G00X2.3563Y-4.0148
M15
G01X2.4075Y-4.0148
M16
G05
G00X2.4744Y-3.7805
M15
G01X2.5256Y-3.7805
M16
G05
G00X2.4744Y-4.0148
M15
G01X2.5256Y-4.0148
M16
G05
G00X2.6319Y-3.7805
M15
G01X2.6831Y-3.7805
M16
G05
G00X2.6319Y-4.0148
M15
G01X2.6831Y-4.0148
M16
G05
G00X2.6909Y-3.8494
M15
G01X2.7421Y-3.8494
M16
G05
G00X2.6909Y-3.9459
M15
G01X2.7421Y-3.9459
M16
G05
T6
G00X2.3927Y-2.5815
M15
G01X2.3927Y-2.6287
M16
G05
G00X2.8101Y-2.5815
M15
G01X2.8101Y-2.6287
M16
G05
M30
