%TF.GenerationSoftware,KiCad,Pcbnew,8.0.0-8.0.0-1~ubuntu23.10.1*%
%TF.CreationDate,2024-03-08T09:57:00+02:00*%
%TF.ProjectId,reversible,72657665-7273-4696-926c-652e6b696361,rev?*%
%TF.SameCoordinates,Original*%
%TF.FileFunction,Soldermask,Bot*%
%TF.FilePolarity,Negative*%
%FSLAX46Y46*%
G04 Gerber Fmt 4.6, Leading zero omitted, Abs format (unit mm)*
G04 Created by KiCad (PCBNEW 8.0.0-8.0.0-1~ubuntu23.10.1) date 2024-03-08 09:57:00*
%MOMM*%
%LPD*%
G01*
G04 APERTURE LIST*
%ADD10C,1.600000*%
%ADD11O,1.600000X1.600000*%
%ADD12R,1.998980X1.998980*%
%ADD13R,1.800000X1.500000*%
%ADD14C,1.998980*%
%ADD15C,1.701800*%
%ADD16C,5.000000*%
%ADD17C,2.500000*%
%ADD18R,2.000000X2.000000*%
%ADD19C,2.000000*%
%ADD20O,1.400000X2.600000*%
%ADD21C,3.700000*%
%ADD22C,1.397000*%
%ADD23C,1.651000*%
%ADD24C,1.524000*%
%ADD25C,1.200000*%
%ADD26R,2.100000X0.800000*%
%ADD27R,1.143000X0.635000*%
%ADD28R,0.635000X1.143000*%
G04 APERTURE END LIST*
D10*
%TO.C,R2*%
X79000000Y-98880000D03*
D11*
X79000000Y-106500000D03*
%TD*%
D12*
%TO.C,D22*%
X162500000Y-69000000D03*
D13*
X165800000Y-69002540D03*
X169200000Y-69002540D03*
D14*
X172660000Y-69000000D03*
%TD*%
D15*
%TO.C,SW27*%
X181000000Y-80000000D03*
D16*
X186500000Y-80000000D03*
D15*
X192000000Y-80000000D03*
D17*
X182100000Y-75300000D03*
X183900000Y-74250000D03*
X189100000Y-74250000D03*
X190900000Y-75300000D03*
%TD*%
D15*
%TO.C,SW17*%
X143000000Y-77000000D03*
D16*
X148500000Y-77000000D03*
D15*
X154000000Y-77000000D03*
D17*
X144100000Y-72300000D03*
X145900000Y-71250000D03*
X151100000Y-71250000D03*
X152900000Y-72300000D03*
%TD*%
D12*
%TO.C,D6*%
X105500000Y-48497460D03*
D13*
X108800000Y-48500000D03*
X112200000Y-48500000D03*
D14*
X115660000Y-48497460D03*
%TD*%
D12*
%TO.C,D15*%
X86500000Y-125997460D03*
D13*
X89800000Y-126000000D03*
X93200000Y-126000000D03*
D14*
X96660000Y-125997460D03*
%TD*%
D15*
%TO.C,SW24*%
X162000000Y-116500000D03*
D16*
X167500000Y-116500000D03*
D15*
X173000000Y-116500000D03*
D17*
X163100000Y-111800000D03*
X164900000Y-110750000D03*
X170100000Y-110750000D03*
X171900000Y-111800000D03*
%TD*%
D12*
%TO.C,D24*%
X162500000Y-106997460D03*
D13*
X165800000Y-107000000D03*
X169200000Y-107000000D03*
D14*
X172660000Y-106997460D03*
%TD*%
D12*
%TO.C,D10*%
X67500000Y-126000000D03*
D13*
X70799999Y-126002540D03*
X74200001Y-126002540D03*
D14*
X77660000Y-126000000D03*
%TD*%
D15*
%TO.C,SW6*%
X105000000Y-58000000D03*
D16*
X110500000Y-58000000D03*
D15*
X116000000Y-58000000D03*
D17*
X106100000Y-53300000D03*
X107900000Y-52250000D03*
X113100000Y-52250000D03*
X114900000Y-53300000D03*
%TD*%
D15*
%TO.C,SW19*%
X143000000Y-115000000D03*
D16*
X148500000Y-115000000D03*
D15*
X154000000Y-115000000D03*
D17*
X144100000Y-110300000D03*
X145900000Y-109250000D03*
X151100000Y-109250000D03*
X152900000Y-110300000D03*
%TD*%
D15*
%TO.C,SW8*%
X105000000Y-96000000D03*
D16*
X110500000Y-96000000D03*
D15*
X116000000Y-96000000D03*
D17*
X106100000Y-91300000D03*
X107900000Y-90250000D03*
X113100000Y-90250000D03*
X114900000Y-91300000D03*
%TD*%
D12*
%TO.C,D4*%
X86500000Y-107000000D03*
D13*
X89800000Y-107002540D03*
X93200000Y-107002540D03*
D14*
X96660000Y-107000000D03*
%TD*%
D18*
%TO.C,SW30*%
X68575675Y-58669765D03*
D19*
X63575675Y-58669765D03*
X66075675Y-58669765D03*
D20*
X71375675Y-66169765D03*
X60775675Y-66169765D03*
D19*
X68575675Y-73169765D03*
X63575675Y-73169765D03*
%TD*%
D12*
%TO.C,D19*%
X143500000Y-105500000D03*
D13*
X146800000Y-105502540D03*
X150200000Y-105502540D03*
D14*
X153660000Y-105500000D03*
%TD*%
D12*
%TO.C,D9*%
X105500000Y-105500000D03*
D13*
X108800000Y-105502540D03*
X112200000Y-105502540D03*
D14*
X115660000Y-105500000D03*
%TD*%
D15*
%TO.C,SW3*%
X86000000Y-97500000D03*
D16*
X91500000Y-97500000D03*
D15*
X97000000Y-97500000D03*
D17*
X87100000Y-92800000D03*
X88900000Y-91750000D03*
X94100000Y-91750000D03*
X95900000Y-92800000D03*
%TD*%
D15*
%TO.C,SW29*%
X181000000Y-118000000D03*
D16*
X186500000Y-118000000D03*
D15*
X192000000Y-118000000D03*
D17*
X182100000Y-113300000D03*
X183900000Y-112250000D03*
X189100000Y-112250000D03*
X190900000Y-113300000D03*
%TD*%
D21*
%TO.C,TH3*%
X59000000Y-139000000D03*
%TD*%
D12*
%TO.C,D17*%
X143500000Y-67497460D03*
D13*
X146800000Y-67500000D03*
X150200000Y-67500000D03*
D14*
X153660000Y-67497460D03*
%TD*%
D12*
%TO.C,D16*%
X143500000Y-48497460D03*
D13*
X146800000Y-48500000D03*
X150200000Y-48500000D03*
D14*
X153660000Y-48497460D03*
%TD*%
D12*
%TO.C,D2*%
X86700000Y-68997460D03*
D13*
X90000000Y-69000000D03*
X93400000Y-69000000D03*
D14*
X96860000Y-68997460D03*
%TD*%
D22*
%TO.C,P1*%
X62460000Y-87499620D03*
X65000000Y-87499620D03*
X67540000Y-87499620D03*
X70080000Y-87499620D03*
%TD*%
D15*
%TO.C,SW28*%
X181000000Y-99000000D03*
D16*
X186500000Y-99000000D03*
D15*
X192000000Y-99000000D03*
D17*
X182100000Y-94300000D03*
X183900000Y-93250000D03*
X189100000Y-93250000D03*
X190900000Y-94300000D03*
%TD*%
D21*
%TO.C,TH2*%
X177500000Y-48500000D03*
%TD*%
D15*
%TO.C,SW16*%
X143000000Y-58000000D03*
D16*
X148500000Y-58000000D03*
D15*
X154000000Y-58000000D03*
D17*
X144100000Y-53300000D03*
X145900000Y-52250000D03*
X151100000Y-52250000D03*
X152900000Y-53300000D03*
%TD*%
D12*
%TO.C,D12*%
X124500000Y-65997460D03*
D13*
X127800000Y-66000000D03*
X131200000Y-66000000D03*
D14*
X134660000Y-65997460D03*
%TD*%
D12*
%TO.C,D18*%
X143500000Y-86497460D03*
D13*
X146800000Y-86500000D03*
X150200000Y-86500000D03*
D14*
X153660000Y-86497460D03*
%TD*%
D21*
%TO.C,TH4*%
X177000000Y-122500000D03*
%TD*%
D12*
%TO.C,D5*%
X61500000Y-106997460D03*
D13*
X64800000Y-107000000D03*
X68200000Y-107000000D03*
D14*
X71660000Y-106997460D03*
%TD*%
D12*
%TO.C,D11*%
X124500000Y-46997460D03*
D13*
X127800000Y-47000000D03*
X131200000Y-47000000D03*
D14*
X134660000Y-46997460D03*
%TD*%
D15*
%TO.C,SW14*%
X124000000Y-113500000D03*
D16*
X129500000Y-113500000D03*
D15*
X135000000Y-113500000D03*
D17*
X125100000Y-108800000D03*
X126900000Y-107750000D03*
X132100000Y-107750000D03*
X133900000Y-108800000D03*
%TD*%
D15*
%TO.C,SW7*%
X105000000Y-77000000D03*
D16*
X110500000Y-77000000D03*
D15*
X116000000Y-77000000D03*
D17*
X106100000Y-72300000D03*
X107900000Y-71250000D03*
X113100000Y-71250000D03*
X114900000Y-72300000D03*
%TD*%
D12*
%TO.C,D28*%
X181500000Y-89497460D03*
D13*
X184800000Y-89500000D03*
X188200000Y-89500000D03*
D14*
X191660000Y-89497460D03*
%TD*%
D15*
%TO.C,SW2*%
X86000000Y-78500000D03*
D16*
X91500000Y-78500000D03*
D15*
X97000000Y-78500000D03*
D17*
X87100000Y-73800000D03*
X88900000Y-72750000D03*
X94100000Y-72750000D03*
X95900000Y-73800000D03*
%TD*%
D15*
%TO.C,SW20*%
X105000000Y-135500000D03*
D16*
X110500000Y-135500000D03*
D15*
X116000000Y-135500000D03*
D17*
X106100000Y-130800000D03*
X107900000Y-129750000D03*
X113100000Y-129750000D03*
X114900000Y-130800000D03*
%TD*%
D12*
%TO.C,D27*%
X181500000Y-70500000D03*
D13*
X184800000Y-70502540D03*
X188200000Y-70502540D03*
D14*
X191660000Y-70500000D03*
%TD*%
D15*
%TO.C,SW13*%
X124000000Y-94500000D03*
D16*
X129500000Y-94500000D03*
D15*
X135000000Y-94500000D03*
D17*
X125100000Y-89800000D03*
X126900000Y-88750000D03*
X132100000Y-88750000D03*
X133900000Y-89800000D03*
%TD*%
D15*
%TO.C,SW10*%
X67100001Y-135500000D03*
D16*
X72600001Y-135500000D03*
D15*
X78100001Y-135500000D03*
D17*
X68200001Y-130800000D03*
X70000000Y-129750000D03*
X75200002Y-129750000D03*
X77000001Y-130800000D03*
%TD*%
D12*
%TO.C,D25*%
X124500000Y-125997460D03*
D13*
X127800000Y-126000000D03*
X131200000Y-126000000D03*
D14*
X134660000Y-125997460D03*
%TD*%
D15*
%TO.C,SW18*%
X143000000Y-96100000D03*
D16*
X148500000Y-96100000D03*
D15*
X154000000Y-96100000D03*
D17*
X144100000Y-91400000D03*
X145900000Y-90350000D03*
X151100000Y-90350000D03*
X152900000Y-91400000D03*
%TD*%
D15*
%TO.C,SW23*%
X162000000Y-97500000D03*
D16*
X167500000Y-97500000D03*
D15*
X173000000Y-97500000D03*
D17*
X163100000Y-92800000D03*
X164900000Y-91750000D03*
X170100000Y-91750000D03*
X171900000Y-92800000D03*
%TD*%
D12*
%TO.C,D21*%
X162500000Y-49997460D03*
D13*
X165800000Y-50000000D03*
X169200000Y-50000000D03*
D14*
X172660000Y-49997460D03*
%TD*%
D23*
%TO.C,C1*%
X79500000Y-65660000D03*
X79500000Y-55500000D03*
%TD*%
D15*
%TO.C,SW21*%
X162000000Y-59500000D03*
D16*
X167500000Y-59500000D03*
D15*
X173000000Y-59500000D03*
D17*
X163100000Y-54800000D03*
X164900000Y-53750000D03*
X170100000Y-53750000D03*
X171900000Y-54800000D03*
%TD*%
D15*
%TO.C,SW15*%
X86000000Y-135500000D03*
D16*
X91500000Y-135500000D03*
D15*
X97000000Y-135500000D03*
D17*
X87100000Y-130800000D03*
X88900000Y-129750000D03*
X94100000Y-129750000D03*
X95900000Y-130800000D03*
%TD*%
D24*
%TO.C,U1*%
X57701185Y-51804255D03*
X74240000Y-53000000D03*
X57701185Y-54344255D03*
X74240000Y-55540000D03*
X57701185Y-56884255D03*
X74240000Y-58080000D03*
X57701185Y-59424255D03*
X74240000Y-60620000D03*
X57701185Y-61964255D03*
X74240000Y-63160000D03*
X57701185Y-64504255D03*
X74240000Y-65700000D03*
X57701185Y-67044255D03*
X74240000Y-68240000D03*
X57701185Y-69584255D03*
X74240000Y-70780000D03*
X57701185Y-72124255D03*
X74240000Y-73320000D03*
X57701185Y-74664255D03*
X74240000Y-75860000D03*
X57701185Y-77204255D03*
X74240000Y-78400000D03*
X57701185Y-79744255D03*
X74240000Y-80940000D03*
X59000000Y-80940000D03*
X72941185Y-79744255D03*
X59000000Y-78400000D03*
X72941185Y-77204255D03*
X59000000Y-75860000D03*
X72941185Y-74664255D03*
X59000000Y-73320000D03*
X72941185Y-72124255D03*
X59000000Y-70780000D03*
X72941185Y-69584255D03*
X59000000Y-68240000D03*
X72941185Y-67044255D03*
X59000000Y-65700000D03*
X72941185Y-64504255D03*
X59000000Y-63160000D03*
X72941185Y-61964255D03*
X59000000Y-60620000D03*
X72941185Y-59424255D03*
X59000000Y-58080000D03*
X72941185Y-56884255D03*
X59000000Y-55540000D03*
X72941185Y-54344255D03*
X59000000Y-53000000D03*
X72941185Y-51804255D03*
%TD*%
D21*
%TO.C,TH1*%
X79500000Y-48500000D03*
%TD*%
D10*
%TO.C,R1*%
X79000000Y-95810000D03*
D11*
X79000000Y-88190000D03*
%TD*%
D12*
%TO.C,D26*%
X181500000Y-51500000D03*
D13*
X184800000Y-51502540D03*
X188200000Y-51502540D03*
D14*
X191660000Y-51500000D03*
%TD*%
D15*
%TO.C,SW5*%
X61000000Y-116500000D03*
D16*
X66500000Y-116500000D03*
D15*
X72000000Y-116500000D03*
D17*
X62100000Y-111800000D03*
X63900000Y-110750000D03*
X69100000Y-110750000D03*
X70900000Y-111800000D03*
%TD*%
D15*
%TO.C,SW4*%
X86000000Y-116500000D03*
D16*
X91500000Y-116500000D03*
D15*
X97000000Y-116500000D03*
D17*
X87100000Y-111800000D03*
X88900000Y-110750000D03*
X94100000Y-110750000D03*
X95900000Y-111800000D03*
%TD*%
D12*
%TO.C,D29*%
X181500000Y-108500000D03*
D13*
X184800000Y-108502540D03*
X188200000Y-108502540D03*
D14*
X191660000Y-108500000D03*
%TD*%
D12*
%TO.C,D7*%
X105500000Y-67500000D03*
D13*
X108800000Y-67502540D03*
X112200000Y-67502540D03*
D14*
X115660000Y-67500000D03*
%TD*%
D15*
%TO.C,SW22*%
X162000000Y-78500000D03*
D16*
X167500000Y-78500000D03*
D15*
X173000000Y-78500000D03*
D17*
X163100000Y-73800000D03*
X164900000Y-72750000D03*
X170100000Y-72750000D03*
X171900000Y-73800000D03*
%TD*%
D15*
%TO.C,SW9*%
X105000000Y-115000000D03*
D16*
X110500000Y-115000000D03*
D15*
X116000000Y-115000000D03*
D17*
X106100000Y-110300000D03*
X107900000Y-109250000D03*
X113100000Y-109250000D03*
X114900000Y-110300000D03*
%TD*%
D12*
%TO.C,D30*%
X61300000Y-91497460D03*
D13*
X64600000Y-91500000D03*
X68000000Y-91500000D03*
D14*
X71460000Y-91497460D03*
%TD*%
D12*
%TO.C,D14*%
X124500000Y-103997460D03*
D13*
X127800000Y-104000000D03*
X131200000Y-104000000D03*
D14*
X134660000Y-103997460D03*
%TD*%
D15*
%TO.C,SW11*%
X124000000Y-56500000D03*
D16*
X129500000Y-56500000D03*
D15*
X135000000Y-56500000D03*
D17*
X125100000Y-51800000D03*
X126900000Y-50750000D03*
X132100000Y-50750000D03*
X133900000Y-51800000D03*
%TD*%
D15*
%TO.C,SW12*%
X124000000Y-75500000D03*
D16*
X129500000Y-75500000D03*
D15*
X135000000Y-75500000D03*
D17*
X125100000Y-70800000D03*
X126900000Y-69750000D03*
X132100000Y-69750000D03*
X133900000Y-70800000D03*
%TD*%
D12*
%TO.C,D8*%
X105500000Y-86500000D03*
D13*
X108800000Y-86502540D03*
X112200000Y-86502540D03*
D14*
X115660000Y-86500000D03*
%TD*%
D25*
%TO.C,J1*%
X58700000Y-99875000D03*
X65700000Y-99875000D03*
X58700000Y-98125000D03*
X65700000Y-98125000D03*
D26*
X63500000Y-101975000D03*
X63500000Y-96025000D03*
X60500000Y-101975000D03*
X60500000Y-96025000D03*
X69000000Y-100225000D03*
X69000000Y-97775000D03*
X67500000Y-101975000D03*
X67500000Y-96025000D03*
%TD*%
D12*
%TO.C,D20*%
X105500000Y-125997460D03*
D13*
X108800000Y-126000000D03*
X112200000Y-126000000D03*
D14*
X115660000Y-125997460D03*
%TD*%
D23*
%TO.C,C2*%
X79500000Y-79160000D03*
X79500000Y-69000000D03*
%TD*%
D12*
%TO.C,D1*%
X86500000Y-49997460D03*
D13*
X89800000Y-50000000D03*
X93200000Y-50000000D03*
D14*
X96660000Y-49997460D03*
%TD*%
D15*
%TO.C,SW1*%
X86000000Y-59500000D03*
D16*
X91500000Y-59500000D03*
D15*
X97000000Y-59500000D03*
D17*
X87100000Y-54800000D03*
X88900000Y-53750000D03*
X94100000Y-53750000D03*
X95900000Y-54800000D03*
%TD*%
D15*
%TO.C,SW26*%
X181100000Y-61000000D03*
D16*
X186600000Y-61000000D03*
D15*
X192100000Y-61000000D03*
D17*
X182200000Y-56300000D03*
X184000000Y-55250000D03*
X189200000Y-55250000D03*
X191000000Y-56300000D03*
%TD*%
D12*
%TO.C,D3*%
X86500000Y-88000000D03*
D13*
X89800000Y-88002540D03*
X93200000Y-88002540D03*
D14*
X96660000Y-88000000D03*
%TD*%
D12*
%TO.C,D23*%
X162500000Y-87997460D03*
D13*
X165800000Y-88000000D03*
X169200000Y-88000000D03*
D14*
X172660000Y-87997460D03*
%TD*%
D15*
%TO.C,SW25*%
X124000000Y-135500000D03*
D16*
X129500000Y-135500000D03*
D15*
X135000000Y-135500000D03*
D17*
X125100000Y-130800000D03*
X126900000Y-129750000D03*
X132100000Y-129750000D03*
X133900000Y-130800000D03*
%TD*%
D21*
%TO.C,TH5*%
X120000000Y-84000000D03*
%TD*%
D12*
%TO.C,D13*%
X124500000Y-85000000D03*
D13*
X127800000Y-85002540D03*
X131200000Y-85002540D03*
D14*
X134660000Y-85000000D03*
%TD*%
D27*
%TO.C,JP8*%
X65000000Y-85000380D03*
X65000000Y-83999620D03*
%TD*%
D28*
%TO.C,JP1*%
X60000000Y-46500000D03*
X61000760Y-46500000D03*
%TD*%
D27*
%TO.C,JP10*%
X70000000Y-84999620D03*
X70000000Y-83998860D03*
%TD*%
%TO.C,JP12*%
X58000000Y-83999240D03*
X58000000Y-85000000D03*
%TD*%
%TO.C,JP7*%
X62500000Y-85000760D03*
X62500000Y-84000000D03*
%TD*%
%TO.C,JP9*%
X67500000Y-85000000D03*
X67500000Y-83999240D03*
%TD*%
M02*
