%TF.GenerationSoftware,KiCad,Pcbnew,8.0.0-8.0.0-1~ubuntu23.10.1*%
%TF.CreationDate,2024-03-08T09:57:00+02:00*%
%TF.ProjectId,reversible,72657665-7273-4696-926c-652e6b696361,rev?*%
%TF.SameCoordinates,Original*%
%TF.FileFunction,Legend,Top*%
%TF.FilePolarity,Positive*%
%FSLAX46Y46*%
G04 Gerber Fmt 4.6, Leading zero omitted, Abs format (unit mm)*
G04 Created by KiCad (PCBNEW 8.0.0-8.0.0-1~ubuntu23.10.1) date 2024-03-08 09:57:00*
%MOMM*%
%LPD*%
G01*
G04 APERTURE LIST*
%ADD10C,0.150000*%
%ADD11C,0.203200*%
%ADD12C,0.120000*%
%ADD13C,1.397000*%
%ADD14C,1.524000*%
%ADD15C,1.200000*%
%ADD16R,2.100000X0.800000*%
G04 APERTURE END LIST*
D10*
X166285714Y-70957359D02*
X166285714Y-69957359D01*
X166285714Y-69957359D02*
X166523809Y-69957359D01*
X166523809Y-69957359D02*
X166666666Y-70004978D01*
X166666666Y-70004978D02*
X166761904Y-70100216D01*
X166761904Y-70100216D02*
X166809523Y-70195454D01*
X166809523Y-70195454D02*
X166857142Y-70385930D01*
X166857142Y-70385930D02*
X166857142Y-70528787D01*
X166857142Y-70528787D02*
X166809523Y-70719263D01*
X166809523Y-70719263D02*
X166761904Y-70814501D01*
X166761904Y-70814501D02*
X166666666Y-70909740D01*
X166666666Y-70909740D02*
X166523809Y-70957359D01*
X166523809Y-70957359D02*
X166285714Y-70957359D01*
X167238095Y-70052597D02*
X167285714Y-70004978D01*
X167285714Y-70004978D02*
X167380952Y-69957359D01*
X167380952Y-69957359D02*
X167619047Y-69957359D01*
X167619047Y-69957359D02*
X167714285Y-70004978D01*
X167714285Y-70004978D02*
X167761904Y-70052597D01*
X167761904Y-70052597D02*
X167809523Y-70147835D01*
X167809523Y-70147835D02*
X167809523Y-70243073D01*
X167809523Y-70243073D02*
X167761904Y-70385930D01*
X167761904Y-70385930D02*
X167190476Y-70957359D01*
X167190476Y-70957359D02*
X167809523Y-70957359D01*
X168190476Y-70052597D02*
X168238095Y-70004978D01*
X168238095Y-70004978D02*
X168333333Y-69957359D01*
X168333333Y-69957359D02*
X168571428Y-69957359D01*
X168571428Y-69957359D02*
X168666666Y-70004978D01*
X168666666Y-70004978D02*
X168714285Y-70052597D01*
X168714285Y-70052597D02*
X168761904Y-70147835D01*
X168761904Y-70147835D02*
X168761904Y-70243073D01*
X168761904Y-70243073D02*
X168714285Y-70385930D01*
X168714285Y-70385930D02*
X168142857Y-70957359D01*
X168142857Y-70957359D02*
X168761904Y-70957359D01*
X109761905Y-50454819D02*
X109761905Y-49454819D01*
X109761905Y-49454819D02*
X110000000Y-49454819D01*
X110000000Y-49454819D02*
X110142857Y-49502438D01*
X110142857Y-49502438D02*
X110238095Y-49597676D01*
X110238095Y-49597676D02*
X110285714Y-49692914D01*
X110285714Y-49692914D02*
X110333333Y-49883390D01*
X110333333Y-49883390D02*
X110333333Y-50026247D01*
X110333333Y-50026247D02*
X110285714Y-50216723D01*
X110285714Y-50216723D02*
X110238095Y-50311961D01*
X110238095Y-50311961D02*
X110142857Y-50407200D01*
X110142857Y-50407200D02*
X110000000Y-50454819D01*
X110000000Y-50454819D02*
X109761905Y-50454819D01*
X111190476Y-49454819D02*
X111000000Y-49454819D01*
X111000000Y-49454819D02*
X110904762Y-49502438D01*
X110904762Y-49502438D02*
X110857143Y-49550057D01*
X110857143Y-49550057D02*
X110761905Y-49692914D01*
X110761905Y-49692914D02*
X110714286Y-49883390D01*
X110714286Y-49883390D02*
X110714286Y-50264342D01*
X110714286Y-50264342D02*
X110761905Y-50359580D01*
X110761905Y-50359580D02*
X110809524Y-50407200D01*
X110809524Y-50407200D02*
X110904762Y-50454819D01*
X110904762Y-50454819D02*
X111095238Y-50454819D01*
X111095238Y-50454819D02*
X111190476Y-50407200D01*
X111190476Y-50407200D02*
X111238095Y-50359580D01*
X111238095Y-50359580D02*
X111285714Y-50264342D01*
X111285714Y-50264342D02*
X111285714Y-50026247D01*
X111285714Y-50026247D02*
X111238095Y-49931009D01*
X111238095Y-49931009D02*
X111190476Y-49883390D01*
X111190476Y-49883390D02*
X111095238Y-49835771D01*
X111095238Y-49835771D02*
X110904762Y-49835771D01*
X110904762Y-49835771D02*
X110809524Y-49883390D01*
X110809524Y-49883390D02*
X110761905Y-49931009D01*
X110761905Y-49931009D02*
X110714286Y-50026247D01*
X90285714Y-127954819D02*
X90285714Y-126954819D01*
X90285714Y-126954819D02*
X90523809Y-126954819D01*
X90523809Y-126954819D02*
X90666666Y-127002438D01*
X90666666Y-127002438D02*
X90761904Y-127097676D01*
X90761904Y-127097676D02*
X90809523Y-127192914D01*
X90809523Y-127192914D02*
X90857142Y-127383390D01*
X90857142Y-127383390D02*
X90857142Y-127526247D01*
X90857142Y-127526247D02*
X90809523Y-127716723D01*
X90809523Y-127716723D02*
X90761904Y-127811961D01*
X90761904Y-127811961D02*
X90666666Y-127907200D01*
X90666666Y-127907200D02*
X90523809Y-127954819D01*
X90523809Y-127954819D02*
X90285714Y-127954819D01*
X91809523Y-127954819D02*
X91238095Y-127954819D01*
X91523809Y-127954819D02*
X91523809Y-126954819D01*
X91523809Y-126954819D02*
X91428571Y-127097676D01*
X91428571Y-127097676D02*
X91333333Y-127192914D01*
X91333333Y-127192914D02*
X91238095Y-127240533D01*
X92714285Y-126954819D02*
X92238095Y-126954819D01*
X92238095Y-126954819D02*
X92190476Y-127431009D01*
X92190476Y-127431009D02*
X92238095Y-127383390D01*
X92238095Y-127383390D02*
X92333333Y-127335771D01*
X92333333Y-127335771D02*
X92571428Y-127335771D01*
X92571428Y-127335771D02*
X92666666Y-127383390D01*
X92666666Y-127383390D02*
X92714285Y-127431009D01*
X92714285Y-127431009D02*
X92761904Y-127526247D01*
X92761904Y-127526247D02*
X92761904Y-127764342D01*
X92761904Y-127764342D02*
X92714285Y-127859580D01*
X92714285Y-127859580D02*
X92666666Y-127907200D01*
X92666666Y-127907200D02*
X92571428Y-127954819D01*
X92571428Y-127954819D02*
X92333333Y-127954819D01*
X92333333Y-127954819D02*
X92238095Y-127907200D01*
X92238095Y-127907200D02*
X92190476Y-127859580D01*
X166285714Y-108954819D02*
X166285714Y-107954819D01*
X166285714Y-107954819D02*
X166523809Y-107954819D01*
X166523809Y-107954819D02*
X166666666Y-108002438D01*
X166666666Y-108002438D02*
X166761904Y-108097676D01*
X166761904Y-108097676D02*
X166809523Y-108192914D01*
X166809523Y-108192914D02*
X166857142Y-108383390D01*
X166857142Y-108383390D02*
X166857142Y-108526247D01*
X166857142Y-108526247D02*
X166809523Y-108716723D01*
X166809523Y-108716723D02*
X166761904Y-108811961D01*
X166761904Y-108811961D02*
X166666666Y-108907200D01*
X166666666Y-108907200D02*
X166523809Y-108954819D01*
X166523809Y-108954819D02*
X166285714Y-108954819D01*
X167238095Y-108050057D02*
X167285714Y-108002438D01*
X167285714Y-108002438D02*
X167380952Y-107954819D01*
X167380952Y-107954819D02*
X167619047Y-107954819D01*
X167619047Y-107954819D02*
X167714285Y-108002438D01*
X167714285Y-108002438D02*
X167761904Y-108050057D01*
X167761904Y-108050057D02*
X167809523Y-108145295D01*
X167809523Y-108145295D02*
X167809523Y-108240533D01*
X167809523Y-108240533D02*
X167761904Y-108383390D01*
X167761904Y-108383390D02*
X167190476Y-108954819D01*
X167190476Y-108954819D02*
X167809523Y-108954819D01*
X168666666Y-108288152D02*
X168666666Y-108954819D01*
X168428571Y-107907200D02*
X168190476Y-108621485D01*
X168190476Y-108621485D02*
X168809523Y-108621485D01*
X71285714Y-127957359D02*
X71285714Y-126957359D01*
X71285714Y-126957359D02*
X71523809Y-126957359D01*
X71523809Y-126957359D02*
X71666666Y-127004978D01*
X71666666Y-127004978D02*
X71761904Y-127100216D01*
X71761904Y-127100216D02*
X71809523Y-127195454D01*
X71809523Y-127195454D02*
X71857142Y-127385930D01*
X71857142Y-127385930D02*
X71857142Y-127528787D01*
X71857142Y-127528787D02*
X71809523Y-127719263D01*
X71809523Y-127719263D02*
X71761904Y-127814501D01*
X71761904Y-127814501D02*
X71666666Y-127909740D01*
X71666666Y-127909740D02*
X71523809Y-127957359D01*
X71523809Y-127957359D02*
X71285714Y-127957359D01*
X72809523Y-127957359D02*
X72238095Y-127957359D01*
X72523809Y-127957359D02*
X72523809Y-126957359D01*
X72523809Y-126957359D02*
X72428571Y-127100216D01*
X72428571Y-127100216D02*
X72333333Y-127195454D01*
X72333333Y-127195454D02*
X72238095Y-127243073D01*
X73428571Y-126957359D02*
X73523809Y-126957359D01*
X73523809Y-126957359D02*
X73619047Y-127004978D01*
X73619047Y-127004978D02*
X73666666Y-127052597D01*
X73666666Y-127052597D02*
X73714285Y-127147835D01*
X73714285Y-127147835D02*
X73761904Y-127338311D01*
X73761904Y-127338311D02*
X73761904Y-127576406D01*
X73761904Y-127576406D02*
X73714285Y-127766882D01*
X73714285Y-127766882D02*
X73666666Y-127862120D01*
X73666666Y-127862120D02*
X73619047Y-127909740D01*
X73619047Y-127909740D02*
X73523809Y-127957359D01*
X73523809Y-127957359D02*
X73428571Y-127957359D01*
X73428571Y-127957359D02*
X73333333Y-127909740D01*
X73333333Y-127909740D02*
X73285714Y-127862120D01*
X73285714Y-127862120D02*
X73238095Y-127766882D01*
X73238095Y-127766882D02*
X73190476Y-127576406D01*
X73190476Y-127576406D02*
X73190476Y-127338311D01*
X73190476Y-127338311D02*
X73238095Y-127147835D01*
X73238095Y-127147835D02*
X73285714Y-127052597D01*
X73285714Y-127052597D02*
X73333333Y-127004978D01*
X73333333Y-127004978D02*
X73428571Y-126957359D01*
X90761905Y-108957359D02*
X90761905Y-107957359D01*
X90761905Y-107957359D02*
X91000000Y-107957359D01*
X91000000Y-107957359D02*
X91142857Y-108004978D01*
X91142857Y-108004978D02*
X91238095Y-108100216D01*
X91238095Y-108100216D02*
X91285714Y-108195454D01*
X91285714Y-108195454D02*
X91333333Y-108385930D01*
X91333333Y-108385930D02*
X91333333Y-108528787D01*
X91333333Y-108528787D02*
X91285714Y-108719263D01*
X91285714Y-108719263D02*
X91238095Y-108814501D01*
X91238095Y-108814501D02*
X91142857Y-108909740D01*
X91142857Y-108909740D02*
X91000000Y-108957359D01*
X91000000Y-108957359D02*
X90761905Y-108957359D01*
X92190476Y-108290692D02*
X92190476Y-108957359D01*
X91952381Y-107909740D02*
X91714286Y-108624025D01*
X91714286Y-108624025D02*
X92333333Y-108624025D01*
X73682875Y-63279288D02*
X73730494Y-63136431D01*
X73730494Y-63136431D02*
X73730494Y-62898336D01*
X73730494Y-62898336D02*
X73682875Y-62803098D01*
X73682875Y-62803098D02*
X73635255Y-62755479D01*
X73635255Y-62755479D02*
X73540017Y-62707860D01*
X73540017Y-62707860D02*
X73444779Y-62707860D01*
X73444779Y-62707860D02*
X73349541Y-62755479D01*
X73349541Y-62755479D02*
X73301922Y-62803098D01*
X73301922Y-62803098D02*
X73254303Y-62898336D01*
X73254303Y-62898336D02*
X73206684Y-63088812D01*
X73206684Y-63088812D02*
X73159065Y-63184050D01*
X73159065Y-63184050D02*
X73111446Y-63231669D01*
X73111446Y-63231669D02*
X73016208Y-63279288D01*
X73016208Y-63279288D02*
X72920970Y-63279288D01*
X72920970Y-63279288D02*
X72825732Y-63231669D01*
X72825732Y-63231669D02*
X72778113Y-63184050D01*
X72778113Y-63184050D02*
X72730494Y-63088812D01*
X72730494Y-63088812D02*
X72730494Y-62850717D01*
X72730494Y-62850717D02*
X72778113Y-62707860D01*
X72730494Y-62374526D02*
X73730494Y-62136431D01*
X73730494Y-62136431D02*
X73016208Y-61945955D01*
X73016208Y-61945955D02*
X73730494Y-61755479D01*
X73730494Y-61755479D02*
X72730494Y-61517384D01*
X72730494Y-61231669D02*
X72730494Y-60612622D01*
X72730494Y-60612622D02*
X73111446Y-60945955D01*
X73111446Y-60945955D02*
X73111446Y-60803098D01*
X73111446Y-60803098D02*
X73159065Y-60707860D01*
X73159065Y-60707860D02*
X73206684Y-60660241D01*
X73206684Y-60660241D02*
X73301922Y-60612622D01*
X73301922Y-60612622D02*
X73540017Y-60612622D01*
X73540017Y-60612622D02*
X73635255Y-60660241D01*
X73635255Y-60660241D02*
X73682875Y-60707860D01*
X73682875Y-60707860D02*
X73730494Y-60803098D01*
X73730494Y-60803098D02*
X73730494Y-61088812D01*
X73730494Y-61088812D02*
X73682875Y-61184050D01*
X73682875Y-61184050D02*
X73635255Y-61231669D01*
X72730494Y-59993574D02*
X72730494Y-59898336D01*
X72730494Y-59898336D02*
X72778113Y-59803098D01*
X72778113Y-59803098D02*
X72825732Y-59755479D01*
X72825732Y-59755479D02*
X72920970Y-59707860D01*
X72920970Y-59707860D02*
X73111446Y-59660241D01*
X73111446Y-59660241D02*
X73349541Y-59660241D01*
X73349541Y-59660241D02*
X73540017Y-59707860D01*
X73540017Y-59707860D02*
X73635255Y-59755479D01*
X73635255Y-59755479D02*
X73682875Y-59803098D01*
X73682875Y-59803098D02*
X73730494Y-59898336D01*
X73730494Y-59898336D02*
X73730494Y-59993574D01*
X73730494Y-59993574D02*
X73682875Y-60088812D01*
X73682875Y-60088812D02*
X73635255Y-60136431D01*
X73635255Y-60136431D02*
X73540017Y-60184050D01*
X73540017Y-60184050D02*
X73349541Y-60231669D01*
X73349541Y-60231669D02*
X73111446Y-60231669D01*
X73111446Y-60231669D02*
X72920970Y-60184050D01*
X72920970Y-60184050D02*
X72825732Y-60136431D01*
X72825732Y-60136431D02*
X72778113Y-60088812D01*
X72778113Y-60088812D02*
X72730494Y-59993574D01*
X147285714Y-107457359D02*
X147285714Y-106457359D01*
X147285714Y-106457359D02*
X147523809Y-106457359D01*
X147523809Y-106457359D02*
X147666666Y-106504978D01*
X147666666Y-106504978D02*
X147761904Y-106600216D01*
X147761904Y-106600216D02*
X147809523Y-106695454D01*
X147809523Y-106695454D02*
X147857142Y-106885930D01*
X147857142Y-106885930D02*
X147857142Y-107028787D01*
X147857142Y-107028787D02*
X147809523Y-107219263D01*
X147809523Y-107219263D02*
X147761904Y-107314501D01*
X147761904Y-107314501D02*
X147666666Y-107409740D01*
X147666666Y-107409740D02*
X147523809Y-107457359D01*
X147523809Y-107457359D02*
X147285714Y-107457359D01*
X148809523Y-107457359D02*
X148238095Y-107457359D01*
X148523809Y-107457359D02*
X148523809Y-106457359D01*
X148523809Y-106457359D02*
X148428571Y-106600216D01*
X148428571Y-106600216D02*
X148333333Y-106695454D01*
X148333333Y-106695454D02*
X148238095Y-106743073D01*
X149285714Y-107457359D02*
X149476190Y-107457359D01*
X149476190Y-107457359D02*
X149571428Y-107409740D01*
X149571428Y-107409740D02*
X149619047Y-107362120D01*
X149619047Y-107362120D02*
X149714285Y-107219263D01*
X149714285Y-107219263D02*
X149761904Y-107028787D01*
X149761904Y-107028787D02*
X149761904Y-106647835D01*
X149761904Y-106647835D02*
X149714285Y-106552597D01*
X149714285Y-106552597D02*
X149666666Y-106504978D01*
X149666666Y-106504978D02*
X149571428Y-106457359D01*
X149571428Y-106457359D02*
X149380952Y-106457359D01*
X149380952Y-106457359D02*
X149285714Y-106504978D01*
X149285714Y-106504978D02*
X149238095Y-106552597D01*
X149238095Y-106552597D02*
X149190476Y-106647835D01*
X149190476Y-106647835D02*
X149190476Y-106885930D01*
X149190476Y-106885930D02*
X149238095Y-106981168D01*
X149238095Y-106981168D02*
X149285714Y-107028787D01*
X149285714Y-107028787D02*
X149380952Y-107076406D01*
X149380952Y-107076406D02*
X149571428Y-107076406D01*
X149571428Y-107076406D02*
X149666666Y-107028787D01*
X149666666Y-107028787D02*
X149714285Y-106981168D01*
X149714285Y-106981168D02*
X149761904Y-106885930D01*
X109761905Y-107457359D02*
X109761905Y-106457359D01*
X109761905Y-106457359D02*
X110000000Y-106457359D01*
X110000000Y-106457359D02*
X110142857Y-106504978D01*
X110142857Y-106504978D02*
X110238095Y-106600216D01*
X110238095Y-106600216D02*
X110285714Y-106695454D01*
X110285714Y-106695454D02*
X110333333Y-106885930D01*
X110333333Y-106885930D02*
X110333333Y-107028787D01*
X110333333Y-107028787D02*
X110285714Y-107219263D01*
X110285714Y-107219263D02*
X110238095Y-107314501D01*
X110238095Y-107314501D02*
X110142857Y-107409740D01*
X110142857Y-107409740D02*
X110000000Y-107457359D01*
X110000000Y-107457359D02*
X109761905Y-107457359D01*
X110809524Y-107457359D02*
X111000000Y-107457359D01*
X111000000Y-107457359D02*
X111095238Y-107409740D01*
X111095238Y-107409740D02*
X111142857Y-107362120D01*
X111142857Y-107362120D02*
X111238095Y-107219263D01*
X111238095Y-107219263D02*
X111285714Y-107028787D01*
X111285714Y-107028787D02*
X111285714Y-106647835D01*
X111285714Y-106647835D02*
X111238095Y-106552597D01*
X111238095Y-106552597D02*
X111190476Y-106504978D01*
X111190476Y-106504978D02*
X111095238Y-106457359D01*
X111095238Y-106457359D02*
X110904762Y-106457359D01*
X110904762Y-106457359D02*
X110809524Y-106504978D01*
X110809524Y-106504978D02*
X110761905Y-106552597D01*
X110761905Y-106552597D02*
X110714286Y-106647835D01*
X110714286Y-106647835D02*
X110714286Y-106885930D01*
X110714286Y-106885930D02*
X110761905Y-106981168D01*
X110761905Y-106981168D02*
X110809524Y-107028787D01*
X110809524Y-107028787D02*
X110904762Y-107076406D01*
X110904762Y-107076406D02*
X111095238Y-107076406D01*
X111095238Y-107076406D02*
X111190476Y-107028787D01*
X111190476Y-107028787D02*
X111238095Y-106981168D01*
X111238095Y-106981168D02*
X111285714Y-106885930D01*
X56565265Y-46868216D02*
X56294332Y-46481169D01*
X56100808Y-46868216D02*
X56100808Y-46055416D01*
X56100808Y-46055416D02*
X56410446Y-46055416D01*
X56410446Y-46055416D02*
X56487856Y-46094121D01*
X56487856Y-46094121D02*
X56526561Y-46132826D01*
X56526561Y-46132826D02*
X56565265Y-46210235D01*
X56565265Y-46210235D02*
X56565265Y-46326350D01*
X56565265Y-46326350D02*
X56526561Y-46403759D01*
X56526561Y-46403759D02*
X56487856Y-46442464D01*
X56487856Y-46442464D02*
X56410446Y-46481169D01*
X56410446Y-46481169D02*
X56100808Y-46481169D01*
X56913608Y-46442464D02*
X57184542Y-46442464D01*
X57300656Y-46868216D02*
X56913608Y-46868216D01*
X56913608Y-46868216D02*
X56913608Y-46055416D01*
X56913608Y-46055416D02*
X57300656Y-46055416D01*
X57610294Y-46829512D02*
X57726408Y-46868216D01*
X57726408Y-46868216D02*
X57919932Y-46868216D01*
X57919932Y-46868216D02*
X57997341Y-46829512D01*
X57997341Y-46829512D02*
X58036046Y-46790807D01*
X58036046Y-46790807D02*
X58074751Y-46713397D01*
X58074751Y-46713397D02*
X58074751Y-46635988D01*
X58074751Y-46635988D02*
X58036046Y-46558578D01*
X58036046Y-46558578D02*
X57997341Y-46519873D01*
X57997341Y-46519873D02*
X57919932Y-46481169D01*
X57919932Y-46481169D02*
X57765113Y-46442464D01*
X57765113Y-46442464D02*
X57687703Y-46403759D01*
X57687703Y-46403759D02*
X57648998Y-46365054D01*
X57648998Y-46365054D02*
X57610294Y-46287645D01*
X57610294Y-46287645D02*
X57610294Y-46210235D01*
X57610294Y-46210235D02*
X57648998Y-46132826D01*
X57648998Y-46132826D02*
X57687703Y-46094121D01*
X57687703Y-46094121D02*
X57765113Y-46055416D01*
X57765113Y-46055416D02*
X57958636Y-46055416D01*
X57958636Y-46055416D02*
X58074751Y-46094121D01*
X58423093Y-46442464D02*
X58694027Y-46442464D01*
X58810141Y-46868216D02*
X58423093Y-46868216D01*
X58423093Y-46868216D02*
X58423093Y-46055416D01*
X58423093Y-46055416D02*
X58810141Y-46055416D01*
X59042369Y-46055416D02*
X59506826Y-46055416D01*
X59274598Y-46868216D02*
X59274598Y-46055416D01*
X57714286Y-132754819D02*
X58285714Y-132754819D01*
X58000000Y-133754819D02*
X58000000Y-132754819D01*
X58619048Y-133754819D02*
X58619048Y-132754819D01*
X58619048Y-133231009D02*
X59190476Y-133231009D01*
X59190476Y-133754819D02*
X59190476Y-132754819D01*
X59571429Y-132754819D02*
X60190476Y-132754819D01*
X60190476Y-132754819D02*
X59857143Y-133135771D01*
X59857143Y-133135771D02*
X60000000Y-133135771D01*
X60000000Y-133135771D02*
X60095238Y-133183390D01*
X60095238Y-133183390D02*
X60142857Y-133231009D01*
X60142857Y-133231009D02*
X60190476Y-133326247D01*
X60190476Y-133326247D02*
X60190476Y-133564342D01*
X60190476Y-133564342D02*
X60142857Y-133659580D01*
X60142857Y-133659580D02*
X60095238Y-133707200D01*
X60095238Y-133707200D02*
X60000000Y-133754819D01*
X60000000Y-133754819D02*
X59714286Y-133754819D01*
X59714286Y-133754819D02*
X59619048Y-133707200D01*
X59619048Y-133707200D02*
X59571429Y-133659580D01*
X147285714Y-69454819D02*
X147285714Y-68454819D01*
X147285714Y-68454819D02*
X147523809Y-68454819D01*
X147523809Y-68454819D02*
X147666666Y-68502438D01*
X147666666Y-68502438D02*
X147761904Y-68597676D01*
X147761904Y-68597676D02*
X147809523Y-68692914D01*
X147809523Y-68692914D02*
X147857142Y-68883390D01*
X147857142Y-68883390D02*
X147857142Y-69026247D01*
X147857142Y-69026247D02*
X147809523Y-69216723D01*
X147809523Y-69216723D02*
X147761904Y-69311961D01*
X147761904Y-69311961D02*
X147666666Y-69407200D01*
X147666666Y-69407200D02*
X147523809Y-69454819D01*
X147523809Y-69454819D02*
X147285714Y-69454819D01*
X148809523Y-69454819D02*
X148238095Y-69454819D01*
X148523809Y-69454819D02*
X148523809Y-68454819D01*
X148523809Y-68454819D02*
X148428571Y-68597676D01*
X148428571Y-68597676D02*
X148333333Y-68692914D01*
X148333333Y-68692914D02*
X148238095Y-68740533D01*
X149142857Y-68454819D02*
X149809523Y-68454819D01*
X149809523Y-68454819D02*
X149380952Y-69454819D01*
X147285714Y-50454819D02*
X147285714Y-49454819D01*
X147285714Y-49454819D02*
X147523809Y-49454819D01*
X147523809Y-49454819D02*
X147666666Y-49502438D01*
X147666666Y-49502438D02*
X147761904Y-49597676D01*
X147761904Y-49597676D02*
X147809523Y-49692914D01*
X147809523Y-49692914D02*
X147857142Y-49883390D01*
X147857142Y-49883390D02*
X147857142Y-50026247D01*
X147857142Y-50026247D02*
X147809523Y-50216723D01*
X147809523Y-50216723D02*
X147761904Y-50311961D01*
X147761904Y-50311961D02*
X147666666Y-50407200D01*
X147666666Y-50407200D02*
X147523809Y-50454819D01*
X147523809Y-50454819D02*
X147285714Y-50454819D01*
X148809523Y-50454819D02*
X148238095Y-50454819D01*
X148523809Y-50454819D02*
X148523809Y-49454819D01*
X148523809Y-49454819D02*
X148428571Y-49597676D01*
X148428571Y-49597676D02*
X148333333Y-49692914D01*
X148333333Y-49692914D02*
X148238095Y-49740533D01*
X149666666Y-49454819D02*
X149476190Y-49454819D01*
X149476190Y-49454819D02*
X149380952Y-49502438D01*
X149380952Y-49502438D02*
X149333333Y-49550057D01*
X149333333Y-49550057D02*
X149238095Y-49692914D01*
X149238095Y-49692914D02*
X149190476Y-49883390D01*
X149190476Y-49883390D02*
X149190476Y-50264342D01*
X149190476Y-50264342D02*
X149238095Y-50359580D01*
X149238095Y-50359580D02*
X149285714Y-50407200D01*
X149285714Y-50407200D02*
X149380952Y-50454819D01*
X149380952Y-50454819D02*
X149571428Y-50454819D01*
X149571428Y-50454819D02*
X149666666Y-50407200D01*
X149666666Y-50407200D02*
X149714285Y-50359580D01*
X149714285Y-50359580D02*
X149761904Y-50264342D01*
X149761904Y-50264342D02*
X149761904Y-50026247D01*
X149761904Y-50026247D02*
X149714285Y-49931009D01*
X149714285Y-49931009D02*
X149666666Y-49883390D01*
X149666666Y-49883390D02*
X149571428Y-49835771D01*
X149571428Y-49835771D02*
X149380952Y-49835771D01*
X149380952Y-49835771D02*
X149285714Y-49883390D01*
X149285714Y-49883390D02*
X149238095Y-49931009D01*
X149238095Y-49931009D02*
X149190476Y-50026247D01*
X90961905Y-70954819D02*
X90961905Y-69954819D01*
X90961905Y-69954819D02*
X91200000Y-69954819D01*
X91200000Y-69954819D02*
X91342857Y-70002438D01*
X91342857Y-70002438D02*
X91438095Y-70097676D01*
X91438095Y-70097676D02*
X91485714Y-70192914D01*
X91485714Y-70192914D02*
X91533333Y-70383390D01*
X91533333Y-70383390D02*
X91533333Y-70526247D01*
X91533333Y-70526247D02*
X91485714Y-70716723D01*
X91485714Y-70716723D02*
X91438095Y-70811961D01*
X91438095Y-70811961D02*
X91342857Y-70907200D01*
X91342857Y-70907200D02*
X91200000Y-70954819D01*
X91200000Y-70954819D02*
X90961905Y-70954819D01*
X91914286Y-70050057D02*
X91961905Y-70002438D01*
X91961905Y-70002438D02*
X92057143Y-69954819D01*
X92057143Y-69954819D02*
X92295238Y-69954819D01*
X92295238Y-69954819D02*
X92390476Y-70002438D01*
X92390476Y-70002438D02*
X92438095Y-70050057D01*
X92438095Y-70050057D02*
X92485714Y-70145295D01*
X92485714Y-70145295D02*
X92485714Y-70240533D01*
X92485714Y-70240533D02*
X92438095Y-70383390D01*
X92438095Y-70383390D02*
X91866667Y-70954819D01*
X91866667Y-70954819D02*
X92485714Y-70954819D01*
X176214286Y-43254819D02*
X176785714Y-43254819D01*
X176500000Y-44254819D02*
X176500000Y-43254819D01*
X177119048Y-44254819D02*
X177119048Y-43254819D01*
X177119048Y-43731009D02*
X177690476Y-43731009D01*
X177690476Y-44254819D02*
X177690476Y-43254819D01*
X178119048Y-43350057D02*
X178166667Y-43302438D01*
X178166667Y-43302438D02*
X178261905Y-43254819D01*
X178261905Y-43254819D02*
X178500000Y-43254819D01*
X178500000Y-43254819D02*
X178595238Y-43302438D01*
X178595238Y-43302438D02*
X178642857Y-43350057D01*
X178642857Y-43350057D02*
X178690476Y-43445295D01*
X178690476Y-43445295D02*
X178690476Y-43540533D01*
X178690476Y-43540533D02*
X178642857Y-43683390D01*
X178642857Y-43683390D02*
X178071429Y-44254819D01*
X178071429Y-44254819D02*
X178690476Y-44254819D01*
X128285714Y-67954819D02*
X128285714Y-66954819D01*
X128285714Y-66954819D02*
X128523809Y-66954819D01*
X128523809Y-66954819D02*
X128666666Y-67002438D01*
X128666666Y-67002438D02*
X128761904Y-67097676D01*
X128761904Y-67097676D02*
X128809523Y-67192914D01*
X128809523Y-67192914D02*
X128857142Y-67383390D01*
X128857142Y-67383390D02*
X128857142Y-67526247D01*
X128857142Y-67526247D02*
X128809523Y-67716723D01*
X128809523Y-67716723D02*
X128761904Y-67811961D01*
X128761904Y-67811961D02*
X128666666Y-67907200D01*
X128666666Y-67907200D02*
X128523809Y-67954819D01*
X128523809Y-67954819D02*
X128285714Y-67954819D01*
X129809523Y-67954819D02*
X129238095Y-67954819D01*
X129523809Y-67954819D02*
X129523809Y-66954819D01*
X129523809Y-66954819D02*
X129428571Y-67097676D01*
X129428571Y-67097676D02*
X129333333Y-67192914D01*
X129333333Y-67192914D02*
X129238095Y-67240533D01*
X130190476Y-67050057D02*
X130238095Y-67002438D01*
X130238095Y-67002438D02*
X130333333Y-66954819D01*
X130333333Y-66954819D02*
X130571428Y-66954819D01*
X130571428Y-66954819D02*
X130666666Y-67002438D01*
X130666666Y-67002438D02*
X130714285Y-67050057D01*
X130714285Y-67050057D02*
X130761904Y-67145295D01*
X130761904Y-67145295D02*
X130761904Y-67240533D01*
X130761904Y-67240533D02*
X130714285Y-67383390D01*
X130714285Y-67383390D02*
X130142857Y-67954819D01*
X130142857Y-67954819D02*
X130761904Y-67954819D01*
X147285714Y-88454819D02*
X147285714Y-87454819D01*
X147285714Y-87454819D02*
X147523809Y-87454819D01*
X147523809Y-87454819D02*
X147666666Y-87502438D01*
X147666666Y-87502438D02*
X147761904Y-87597676D01*
X147761904Y-87597676D02*
X147809523Y-87692914D01*
X147809523Y-87692914D02*
X147857142Y-87883390D01*
X147857142Y-87883390D02*
X147857142Y-88026247D01*
X147857142Y-88026247D02*
X147809523Y-88216723D01*
X147809523Y-88216723D02*
X147761904Y-88311961D01*
X147761904Y-88311961D02*
X147666666Y-88407200D01*
X147666666Y-88407200D02*
X147523809Y-88454819D01*
X147523809Y-88454819D02*
X147285714Y-88454819D01*
X148809523Y-88454819D02*
X148238095Y-88454819D01*
X148523809Y-88454819D02*
X148523809Y-87454819D01*
X148523809Y-87454819D02*
X148428571Y-87597676D01*
X148428571Y-87597676D02*
X148333333Y-87692914D01*
X148333333Y-87692914D02*
X148238095Y-87740533D01*
X149380952Y-87883390D02*
X149285714Y-87835771D01*
X149285714Y-87835771D02*
X149238095Y-87788152D01*
X149238095Y-87788152D02*
X149190476Y-87692914D01*
X149190476Y-87692914D02*
X149190476Y-87645295D01*
X149190476Y-87645295D02*
X149238095Y-87550057D01*
X149238095Y-87550057D02*
X149285714Y-87502438D01*
X149285714Y-87502438D02*
X149380952Y-87454819D01*
X149380952Y-87454819D02*
X149571428Y-87454819D01*
X149571428Y-87454819D02*
X149666666Y-87502438D01*
X149666666Y-87502438D02*
X149714285Y-87550057D01*
X149714285Y-87550057D02*
X149761904Y-87645295D01*
X149761904Y-87645295D02*
X149761904Y-87692914D01*
X149761904Y-87692914D02*
X149714285Y-87788152D01*
X149714285Y-87788152D02*
X149666666Y-87835771D01*
X149666666Y-87835771D02*
X149571428Y-87883390D01*
X149571428Y-87883390D02*
X149380952Y-87883390D01*
X149380952Y-87883390D02*
X149285714Y-87931009D01*
X149285714Y-87931009D02*
X149238095Y-87978628D01*
X149238095Y-87978628D02*
X149190476Y-88073866D01*
X149190476Y-88073866D02*
X149190476Y-88264342D01*
X149190476Y-88264342D02*
X149238095Y-88359580D01*
X149238095Y-88359580D02*
X149285714Y-88407200D01*
X149285714Y-88407200D02*
X149380952Y-88454819D01*
X149380952Y-88454819D02*
X149571428Y-88454819D01*
X149571428Y-88454819D02*
X149666666Y-88407200D01*
X149666666Y-88407200D02*
X149714285Y-88359580D01*
X149714285Y-88359580D02*
X149761904Y-88264342D01*
X149761904Y-88264342D02*
X149761904Y-88073866D01*
X149761904Y-88073866D02*
X149714285Y-87978628D01*
X149714285Y-87978628D02*
X149666666Y-87931009D01*
X149666666Y-87931009D02*
X149571428Y-87883390D01*
X175714286Y-117254819D02*
X176285714Y-117254819D01*
X176000000Y-118254819D02*
X176000000Y-117254819D01*
X176619048Y-118254819D02*
X176619048Y-117254819D01*
X176619048Y-117731009D02*
X177190476Y-117731009D01*
X177190476Y-118254819D02*
X177190476Y-117254819D01*
X178095238Y-117588152D02*
X178095238Y-118254819D01*
X177857143Y-117207200D02*
X177619048Y-117921485D01*
X177619048Y-117921485D02*
X178238095Y-117921485D01*
X65761905Y-108954819D02*
X65761905Y-107954819D01*
X65761905Y-107954819D02*
X66000000Y-107954819D01*
X66000000Y-107954819D02*
X66142857Y-108002438D01*
X66142857Y-108002438D02*
X66238095Y-108097676D01*
X66238095Y-108097676D02*
X66285714Y-108192914D01*
X66285714Y-108192914D02*
X66333333Y-108383390D01*
X66333333Y-108383390D02*
X66333333Y-108526247D01*
X66333333Y-108526247D02*
X66285714Y-108716723D01*
X66285714Y-108716723D02*
X66238095Y-108811961D01*
X66238095Y-108811961D02*
X66142857Y-108907200D01*
X66142857Y-108907200D02*
X66000000Y-108954819D01*
X66000000Y-108954819D02*
X65761905Y-108954819D01*
X67238095Y-107954819D02*
X66761905Y-107954819D01*
X66761905Y-107954819D02*
X66714286Y-108431009D01*
X66714286Y-108431009D02*
X66761905Y-108383390D01*
X66761905Y-108383390D02*
X66857143Y-108335771D01*
X66857143Y-108335771D02*
X67095238Y-108335771D01*
X67095238Y-108335771D02*
X67190476Y-108383390D01*
X67190476Y-108383390D02*
X67238095Y-108431009D01*
X67238095Y-108431009D02*
X67285714Y-108526247D01*
X67285714Y-108526247D02*
X67285714Y-108764342D01*
X67285714Y-108764342D02*
X67238095Y-108859580D01*
X67238095Y-108859580D02*
X67190476Y-108907200D01*
X67190476Y-108907200D02*
X67095238Y-108954819D01*
X67095238Y-108954819D02*
X66857143Y-108954819D01*
X66857143Y-108954819D02*
X66761905Y-108907200D01*
X66761905Y-108907200D02*
X66714286Y-108859580D01*
X128285714Y-48954819D02*
X128285714Y-47954819D01*
X128285714Y-47954819D02*
X128523809Y-47954819D01*
X128523809Y-47954819D02*
X128666666Y-48002438D01*
X128666666Y-48002438D02*
X128761904Y-48097676D01*
X128761904Y-48097676D02*
X128809523Y-48192914D01*
X128809523Y-48192914D02*
X128857142Y-48383390D01*
X128857142Y-48383390D02*
X128857142Y-48526247D01*
X128857142Y-48526247D02*
X128809523Y-48716723D01*
X128809523Y-48716723D02*
X128761904Y-48811961D01*
X128761904Y-48811961D02*
X128666666Y-48907200D01*
X128666666Y-48907200D02*
X128523809Y-48954819D01*
X128523809Y-48954819D02*
X128285714Y-48954819D01*
X129809523Y-48954819D02*
X129238095Y-48954819D01*
X129523809Y-48954819D02*
X129523809Y-47954819D01*
X129523809Y-47954819D02*
X129428571Y-48097676D01*
X129428571Y-48097676D02*
X129333333Y-48192914D01*
X129333333Y-48192914D02*
X129238095Y-48240533D01*
X130761904Y-48954819D02*
X130190476Y-48954819D01*
X130476190Y-48954819D02*
X130476190Y-47954819D01*
X130476190Y-47954819D02*
X130380952Y-48097676D01*
X130380952Y-48097676D02*
X130285714Y-48192914D01*
X130285714Y-48192914D02*
X130190476Y-48240533D01*
X185285714Y-91454819D02*
X185285714Y-90454819D01*
X185285714Y-90454819D02*
X185523809Y-90454819D01*
X185523809Y-90454819D02*
X185666666Y-90502438D01*
X185666666Y-90502438D02*
X185761904Y-90597676D01*
X185761904Y-90597676D02*
X185809523Y-90692914D01*
X185809523Y-90692914D02*
X185857142Y-90883390D01*
X185857142Y-90883390D02*
X185857142Y-91026247D01*
X185857142Y-91026247D02*
X185809523Y-91216723D01*
X185809523Y-91216723D02*
X185761904Y-91311961D01*
X185761904Y-91311961D02*
X185666666Y-91407200D01*
X185666666Y-91407200D02*
X185523809Y-91454819D01*
X185523809Y-91454819D02*
X185285714Y-91454819D01*
X186238095Y-90550057D02*
X186285714Y-90502438D01*
X186285714Y-90502438D02*
X186380952Y-90454819D01*
X186380952Y-90454819D02*
X186619047Y-90454819D01*
X186619047Y-90454819D02*
X186714285Y-90502438D01*
X186714285Y-90502438D02*
X186761904Y-90550057D01*
X186761904Y-90550057D02*
X186809523Y-90645295D01*
X186809523Y-90645295D02*
X186809523Y-90740533D01*
X186809523Y-90740533D02*
X186761904Y-90883390D01*
X186761904Y-90883390D02*
X186190476Y-91454819D01*
X186190476Y-91454819D02*
X186809523Y-91454819D01*
X187380952Y-90883390D02*
X187285714Y-90835771D01*
X187285714Y-90835771D02*
X187238095Y-90788152D01*
X187238095Y-90788152D02*
X187190476Y-90692914D01*
X187190476Y-90692914D02*
X187190476Y-90645295D01*
X187190476Y-90645295D02*
X187238095Y-90550057D01*
X187238095Y-90550057D02*
X187285714Y-90502438D01*
X187285714Y-90502438D02*
X187380952Y-90454819D01*
X187380952Y-90454819D02*
X187571428Y-90454819D01*
X187571428Y-90454819D02*
X187666666Y-90502438D01*
X187666666Y-90502438D02*
X187714285Y-90550057D01*
X187714285Y-90550057D02*
X187761904Y-90645295D01*
X187761904Y-90645295D02*
X187761904Y-90692914D01*
X187761904Y-90692914D02*
X187714285Y-90788152D01*
X187714285Y-90788152D02*
X187666666Y-90835771D01*
X187666666Y-90835771D02*
X187571428Y-90883390D01*
X187571428Y-90883390D02*
X187380952Y-90883390D01*
X187380952Y-90883390D02*
X187285714Y-90931009D01*
X187285714Y-90931009D02*
X187238095Y-90978628D01*
X187238095Y-90978628D02*
X187190476Y-91073866D01*
X187190476Y-91073866D02*
X187190476Y-91264342D01*
X187190476Y-91264342D02*
X187238095Y-91359580D01*
X187238095Y-91359580D02*
X187285714Y-91407200D01*
X187285714Y-91407200D02*
X187380952Y-91454819D01*
X187380952Y-91454819D02*
X187571428Y-91454819D01*
X187571428Y-91454819D02*
X187666666Y-91407200D01*
X187666666Y-91407200D02*
X187714285Y-91359580D01*
X187714285Y-91359580D02*
X187761904Y-91264342D01*
X187761904Y-91264342D02*
X187761904Y-91073866D01*
X187761904Y-91073866D02*
X187714285Y-90978628D01*
X187714285Y-90978628D02*
X187666666Y-90931009D01*
X187666666Y-90931009D02*
X187571428Y-90883390D01*
X185285714Y-72457359D02*
X185285714Y-71457359D01*
X185285714Y-71457359D02*
X185523809Y-71457359D01*
X185523809Y-71457359D02*
X185666666Y-71504978D01*
X185666666Y-71504978D02*
X185761904Y-71600216D01*
X185761904Y-71600216D02*
X185809523Y-71695454D01*
X185809523Y-71695454D02*
X185857142Y-71885930D01*
X185857142Y-71885930D02*
X185857142Y-72028787D01*
X185857142Y-72028787D02*
X185809523Y-72219263D01*
X185809523Y-72219263D02*
X185761904Y-72314501D01*
X185761904Y-72314501D02*
X185666666Y-72409740D01*
X185666666Y-72409740D02*
X185523809Y-72457359D01*
X185523809Y-72457359D02*
X185285714Y-72457359D01*
X186238095Y-71552597D02*
X186285714Y-71504978D01*
X186285714Y-71504978D02*
X186380952Y-71457359D01*
X186380952Y-71457359D02*
X186619047Y-71457359D01*
X186619047Y-71457359D02*
X186714285Y-71504978D01*
X186714285Y-71504978D02*
X186761904Y-71552597D01*
X186761904Y-71552597D02*
X186809523Y-71647835D01*
X186809523Y-71647835D02*
X186809523Y-71743073D01*
X186809523Y-71743073D02*
X186761904Y-71885930D01*
X186761904Y-71885930D02*
X186190476Y-72457359D01*
X186190476Y-72457359D02*
X186809523Y-72457359D01*
X187142857Y-71457359D02*
X187809523Y-71457359D01*
X187809523Y-71457359D02*
X187380952Y-72457359D01*
X128285714Y-127954819D02*
X128285714Y-126954819D01*
X128285714Y-126954819D02*
X128523809Y-126954819D01*
X128523809Y-126954819D02*
X128666666Y-127002438D01*
X128666666Y-127002438D02*
X128761904Y-127097676D01*
X128761904Y-127097676D02*
X128809523Y-127192914D01*
X128809523Y-127192914D02*
X128857142Y-127383390D01*
X128857142Y-127383390D02*
X128857142Y-127526247D01*
X128857142Y-127526247D02*
X128809523Y-127716723D01*
X128809523Y-127716723D02*
X128761904Y-127811961D01*
X128761904Y-127811961D02*
X128666666Y-127907200D01*
X128666666Y-127907200D02*
X128523809Y-127954819D01*
X128523809Y-127954819D02*
X128285714Y-127954819D01*
X129238095Y-127050057D02*
X129285714Y-127002438D01*
X129285714Y-127002438D02*
X129380952Y-126954819D01*
X129380952Y-126954819D02*
X129619047Y-126954819D01*
X129619047Y-126954819D02*
X129714285Y-127002438D01*
X129714285Y-127002438D02*
X129761904Y-127050057D01*
X129761904Y-127050057D02*
X129809523Y-127145295D01*
X129809523Y-127145295D02*
X129809523Y-127240533D01*
X129809523Y-127240533D02*
X129761904Y-127383390D01*
X129761904Y-127383390D02*
X129190476Y-127954819D01*
X129190476Y-127954819D02*
X129809523Y-127954819D01*
X130714285Y-126954819D02*
X130238095Y-126954819D01*
X130238095Y-126954819D02*
X130190476Y-127431009D01*
X130190476Y-127431009D02*
X130238095Y-127383390D01*
X130238095Y-127383390D02*
X130333333Y-127335771D01*
X130333333Y-127335771D02*
X130571428Y-127335771D01*
X130571428Y-127335771D02*
X130666666Y-127383390D01*
X130666666Y-127383390D02*
X130714285Y-127431009D01*
X130714285Y-127431009D02*
X130761904Y-127526247D01*
X130761904Y-127526247D02*
X130761904Y-127764342D01*
X130761904Y-127764342D02*
X130714285Y-127859580D01*
X130714285Y-127859580D02*
X130666666Y-127907200D01*
X130666666Y-127907200D02*
X130571428Y-127954819D01*
X130571428Y-127954819D02*
X130333333Y-127954819D01*
X130333333Y-127954819D02*
X130238095Y-127907200D01*
X130238095Y-127907200D02*
X130190476Y-127859580D01*
X166285714Y-51954819D02*
X166285714Y-50954819D01*
X166285714Y-50954819D02*
X166523809Y-50954819D01*
X166523809Y-50954819D02*
X166666666Y-51002438D01*
X166666666Y-51002438D02*
X166761904Y-51097676D01*
X166761904Y-51097676D02*
X166809523Y-51192914D01*
X166809523Y-51192914D02*
X166857142Y-51383390D01*
X166857142Y-51383390D02*
X166857142Y-51526247D01*
X166857142Y-51526247D02*
X166809523Y-51716723D01*
X166809523Y-51716723D02*
X166761904Y-51811961D01*
X166761904Y-51811961D02*
X166666666Y-51907200D01*
X166666666Y-51907200D02*
X166523809Y-51954819D01*
X166523809Y-51954819D02*
X166285714Y-51954819D01*
X167238095Y-51050057D02*
X167285714Y-51002438D01*
X167285714Y-51002438D02*
X167380952Y-50954819D01*
X167380952Y-50954819D02*
X167619047Y-50954819D01*
X167619047Y-50954819D02*
X167714285Y-51002438D01*
X167714285Y-51002438D02*
X167761904Y-51050057D01*
X167761904Y-51050057D02*
X167809523Y-51145295D01*
X167809523Y-51145295D02*
X167809523Y-51240533D01*
X167809523Y-51240533D02*
X167761904Y-51383390D01*
X167761904Y-51383390D02*
X167190476Y-51954819D01*
X167190476Y-51954819D02*
X167809523Y-51954819D01*
X168761904Y-51954819D02*
X168190476Y-51954819D01*
X168476190Y-51954819D02*
X168476190Y-50954819D01*
X168476190Y-50954819D02*
X168380952Y-51097676D01*
X168380952Y-51097676D02*
X168285714Y-51192914D01*
X168285714Y-51192914D02*
X168190476Y-51240533D01*
D11*
X79956006Y-60749332D02*
X80016483Y-60797713D01*
X80016483Y-60797713D02*
X80076959Y-60942856D01*
X80076959Y-60942856D02*
X80076959Y-61039618D01*
X80076959Y-61039618D02*
X80016483Y-61184761D01*
X80016483Y-61184761D02*
X79895530Y-61281523D01*
X79895530Y-61281523D02*
X79774578Y-61329904D01*
X79774578Y-61329904D02*
X79532673Y-61378285D01*
X79532673Y-61378285D02*
X79351244Y-61378285D01*
X79351244Y-61378285D02*
X79109340Y-61329904D01*
X79109340Y-61329904D02*
X78988387Y-61281523D01*
X78988387Y-61281523D02*
X78867435Y-61184761D01*
X78867435Y-61184761D02*
X78806959Y-61039618D01*
X78806959Y-61039618D02*
X78806959Y-60942856D01*
X78806959Y-60942856D02*
X78867435Y-60797713D01*
X78867435Y-60797713D02*
X78927911Y-60749332D01*
X80076959Y-59781713D02*
X80076959Y-60362285D01*
X80076959Y-60071999D02*
X78806959Y-60071999D01*
X78806959Y-60071999D02*
X78988387Y-60168761D01*
X78988387Y-60168761D02*
X79109340Y-60265523D01*
X79109340Y-60265523D02*
X79169816Y-60362285D01*
D10*
X78214286Y-43254819D02*
X78785714Y-43254819D01*
X78500000Y-44254819D02*
X78500000Y-43254819D01*
X79119048Y-44254819D02*
X79119048Y-43254819D01*
X79119048Y-43731009D02*
X79690476Y-43731009D01*
X79690476Y-44254819D02*
X79690476Y-43254819D01*
X80690476Y-44254819D02*
X80119048Y-44254819D01*
X80404762Y-44254819D02*
X80404762Y-43254819D01*
X80404762Y-43254819D02*
X80309524Y-43397676D01*
X80309524Y-43397676D02*
X80214286Y-43492914D01*
X80214286Y-43492914D02*
X80119048Y-43540533D01*
X185285714Y-53457359D02*
X185285714Y-52457359D01*
X185285714Y-52457359D02*
X185523809Y-52457359D01*
X185523809Y-52457359D02*
X185666666Y-52504978D01*
X185666666Y-52504978D02*
X185761904Y-52600216D01*
X185761904Y-52600216D02*
X185809523Y-52695454D01*
X185809523Y-52695454D02*
X185857142Y-52885930D01*
X185857142Y-52885930D02*
X185857142Y-53028787D01*
X185857142Y-53028787D02*
X185809523Y-53219263D01*
X185809523Y-53219263D02*
X185761904Y-53314501D01*
X185761904Y-53314501D02*
X185666666Y-53409740D01*
X185666666Y-53409740D02*
X185523809Y-53457359D01*
X185523809Y-53457359D02*
X185285714Y-53457359D01*
X186238095Y-52552597D02*
X186285714Y-52504978D01*
X186285714Y-52504978D02*
X186380952Y-52457359D01*
X186380952Y-52457359D02*
X186619047Y-52457359D01*
X186619047Y-52457359D02*
X186714285Y-52504978D01*
X186714285Y-52504978D02*
X186761904Y-52552597D01*
X186761904Y-52552597D02*
X186809523Y-52647835D01*
X186809523Y-52647835D02*
X186809523Y-52743073D01*
X186809523Y-52743073D02*
X186761904Y-52885930D01*
X186761904Y-52885930D02*
X186190476Y-53457359D01*
X186190476Y-53457359D02*
X186809523Y-53457359D01*
X187666666Y-52457359D02*
X187476190Y-52457359D01*
X187476190Y-52457359D02*
X187380952Y-52504978D01*
X187380952Y-52504978D02*
X187333333Y-52552597D01*
X187333333Y-52552597D02*
X187238095Y-52695454D01*
X187238095Y-52695454D02*
X187190476Y-52885930D01*
X187190476Y-52885930D02*
X187190476Y-53266882D01*
X187190476Y-53266882D02*
X187238095Y-53362120D01*
X187238095Y-53362120D02*
X187285714Y-53409740D01*
X187285714Y-53409740D02*
X187380952Y-53457359D01*
X187380952Y-53457359D02*
X187571428Y-53457359D01*
X187571428Y-53457359D02*
X187666666Y-53409740D01*
X187666666Y-53409740D02*
X187714285Y-53362120D01*
X187714285Y-53362120D02*
X187761904Y-53266882D01*
X187761904Y-53266882D02*
X187761904Y-53028787D01*
X187761904Y-53028787D02*
X187714285Y-52933549D01*
X187714285Y-52933549D02*
X187666666Y-52885930D01*
X187666666Y-52885930D02*
X187571428Y-52838311D01*
X187571428Y-52838311D02*
X187380952Y-52838311D01*
X187380952Y-52838311D02*
X187285714Y-52885930D01*
X187285714Y-52885930D02*
X187238095Y-52933549D01*
X187238095Y-52933549D02*
X187190476Y-53028787D01*
X185285714Y-110457359D02*
X185285714Y-109457359D01*
X185285714Y-109457359D02*
X185523809Y-109457359D01*
X185523809Y-109457359D02*
X185666666Y-109504978D01*
X185666666Y-109504978D02*
X185761904Y-109600216D01*
X185761904Y-109600216D02*
X185809523Y-109695454D01*
X185809523Y-109695454D02*
X185857142Y-109885930D01*
X185857142Y-109885930D02*
X185857142Y-110028787D01*
X185857142Y-110028787D02*
X185809523Y-110219263D01*
X185809523Y-110219263D02*
X185761904Y-110314501D01*
X185761904Y-110314501D02*
X185666666Y-110409740D01*
X185666666Y-110409740D02*
X185523809Y-110457359D01*
X185523809Y-110457359D02*
X185285714Y-110457359D01*
X186238095Y-109552597D02*
X186285714Y-109504978D01*
X186285714Y-109504978D02*
X186380952Y-109457359D01*
X186380952Y-109457359D02*
X186619047Y-109457359D01*
X186619047Y-109457359D02*
X186714285Y-109504978D01*
X186714285Y-109504978D02*
X186761904Y-109552597D01*
X186761904Y-109552597D02*
X186809523Y-109647835D01*
X186809523Y-109647835D02*
X186809523Y-109743073D01*
X186809523Y-109743073D02*
X186761904Y-109885930D01*
X186761904Y-109885930D02*
X186190476Y-110457359D01*
X186190476Y-110457359D02*
X186809523Y-110457359D01*
X187285714Y-110457359D02*
X187476190Y-110457359D01*
X187476190Y-110457359D02*
X187571428Y-110409740D01*
X187571428Y-110409740D02*
X187619047Y-110362120D01*
X187619047Y-110362120D02*
X187714285Y-110219263D01*
X187714285Y-110219263D02*
X187761904Y-110028787D01*
X187761904Y-110028787D02*
X187761904Y-109647835D01*
X187761904Y-109647835D02*
X187714285Y-109552597D01*
X187714285Y-109552597D02*
X187666666Y-109504978D01*
X187666666Y-109504978D02*
X187571428Y-109457359D01*
X187571428Y-109457359D02*
X187380952Y-109457359D01*
X187380952Y-109457359D02*
X187285714Y-109504978D01*
X187285714Y-109504978D02*
X187238095Y-109552597D01*
X187238095Y-109552597D02*
X187190476Y-109647835D01*
X187190476Y-109647835D02*
X187190476Y-109885930D01*
X187190476Y-109885930D02*
X187238095Y-109981168D01*
X187238095Y-109981168D02*
X187285714Y-110028787D01*
X187285714Y-110028787D02*
X187380952Y-110076406D01*
X187380952Y-110076406D02*
X187571428Y-110076406D01*
X187571428Y-110076406D02*
X187666666Y-110028787D01*
X187666666Y-110028787D02*
X187714285Y-109981168D01*
X187714285Y-109981168D02*
X187761904Y-109885930D01*
X109761905Y-69457359D02*
X109761905Y-68457359D01*
X109761905Y-68457359D02*
X110000000Y-68457359D01*
X110000000Y-68457359D02*
X110142857Y-68504978D01*
X110142857Y-68504978D02*
X110238095Y-68600216D01*
X110238095Y-68600216D02*
X110285714Y-68695454D01*
X110285714Y-68695454D02*
X110333333Y-68885930D01*
X110333333Y-68885930D02*
X110333333Y-69028787D01*
X110333333Y-69028787D02*
X110285714Y-69219263D01*
X110285714Y-69219263D02*
X110238095Y-69314501D01*
X110238095Y-69314501D02*
X110142857Y-69409740D01*
X110142857Y-69409740D02*
X110000000Y-69457359D01*
X110000000Y-69457359D02*
X109761905Y-69457359D01*
X110666667Y-68457359D02*
X111333333Y-68457359D01*
X111333333Y-68457359D02*
X110904762Y-69457359D01*
X65085714Y-93454819D02*
X65085714Y-92454819D01*
X65085714Y-92454819D02*
X65323809Y-92454819D01*
X65323809Y-92454819D02*
X65466666Y-92502438D01*
X65466666Y-92502438D02*
X65561904Y-92597676D01*
X65561904Y-92597676D02*
X65609523Y-92692914D01*
X65609523Y-92692914D02*
X65657142Y-92883390D01*
X65657142Y-92883390D02*
X65657142Y-93026247D01*
X65657142Y-93026247D02*
X65609523Y-93216723D01*
X65609523Y-93216723D02*
X65561904Y-93311961D01*
X65561904Y-93311961D02*
X65466666Y-93407200D01*
X65466666Y-93407200D02*
X65323809Y-93454819D01*
X65323809Y-93454819D02*
X65085714Y-93454819D01*
X65990476Y-92454819D02*
X66609523Y-92454819D01*
X66609523Y-92454819D02*
X66276190Y-92835771D01*
X66276190Y-92835771D02*
X66419047Y-92835771D01*
X66419047Y-92835771D02*
X66514285Y-92883390D01*
X66514285Y-92883390D02*
X66561904Y-92931009D01*
X66561904Y-92931009D02*
X66609523Y-93026247D01*
X66609523Y-93026247D02*
X66609523Y-93264342D01*
X66609523Y-93264342D02*
X66561904Y-93359580D01*
X66561904Y-93359580D02*
X66514285Y-93407200D01*
X66514285Y-93407200D02*
X66419047Y-93454819D01*
X66419047Y-93454819D02*
X66133333Y-93454819D01*
X66133333Y-93454819D02*
X66038095Y-93407200D01*
X66038095Y-93407200D02*
X65990476Y-93359580D01*
X67228571Y-92454819D02*
X67323809Y-92454819D01*
X67323809Y-92454819D02*
X67419047Y-92502438D01*
X67419047Y-92502438D02*
X67466666Y-92550057D01*
X67466666Y-92550057D02*
X67514285Y-92645295D01*
X67514285Y-92645295D02*
X67561904Y-92835771D01*
X67561904Y-92835771D02*
X67561904Y-93073866D01*
X67561904Y-93073866D02*
X67514285Y-93264342D01*
X67514285Y-93264342D02*
X67466666Y-93359580D01*
X67466666Y-93359580D02*
X67419047Y-93407200D01*
X67419047Y-93407200D02*
X67323809Y-93454819D01*
X67323809Y-93454819D02*
X67228571Y-93454819D01*
X67228571Y-93454819D02*
X67133333Y-93407200D01*
X67133333Y-93407200D02*
X67085714Y-93359580D01*
X67085714Y-93359580D02*
X67038095Y-93264342D01*
X67038095Y-93264342D02*
X66990476Y-93073866D01*
X66990476Y-93073866D02*
X66990476Y-92835771D01*
X66990476Y-92835771D02*
X67038095Y-92645295D01*
X67038095Y-92645295D02*
X67085714Y-92550057D01*
X67085714Y-92550057D02*
X67133333Y-92502438D01*
X67133333Y-92502438D02*
X67228571Y-92454819D01*
X128285714Y-105954819D02*
X128285714Y-104954819D01*
X128285714Y-104954819D02*
X128523809Y-104954819D01*
X128523809Y-104954819D02*
X128666666Y-105002438D01*
X128666666Y-105002438D02*
X128761904Y-105097676D01*
X128761904Y-105097676D02*
X128809523Y-105192914D01*
X128809523Y-105192914D02*
X128857142Y-105383390D01*
X128857142Y-105383390D02*
X128857142Y-105526247D01*
X128857142Y-105526247D02*
X128809523Y-105716723D01*
X128809523Y-105716723D02*
X128761904Y-105811961D01*
X128761904Y-105811961D02*
X128666666Y-105907200D01*
X128666666Y-105907200D02*
X128523809Y-105954819D01*
X128523809Y-105954819D02*
X128285714Y-105954819D01*
X129809523Y-105954819D02*
X129238095Y-105954819D01*
X129523809Y-105954819D02*
X129523809Y-104954819D01*
X129523809Y-104954819D02*
X129428571Y-105097676D01*
X129428571Y-105097676D02*
X129333333Y-105192914D01*
X129333333Y-105192914D02*
X129238095Y-105240533D01*
X130666666Y-105288152D02*
X130666666Y-105954819D01*
X130428571Y-104907200D02*
X130190476Y-105621485D01*
X130190476Y-105621485D02*
X130809523Y-105621485D01*
X109761905Y-88457359D02*
X109761905Y-87457359D01*
X109761905Y-87457359D02*
X110000000Y-87457359D01*
X110000000Y-87457359D02*
X110142857Y-87504978D01*
X110142857Y-87504978D02*
X110238095Y-87600216D01*
X110238095Y-87600216D02*
X110285714Y-87695454D01*
X110285714Y-87695454D02*
X110333333Y-87885930D01*
X110333333Y-87885930D02*
X110333333Y-88028787D01*
X110333333Y-88028787D02*
X110285714Y-88219263D01*
X110285714Y-88219263D02*
X110238095Y-88314501D01*
X110238095Y-88314501D02*
X110142857Y-88409740D01*
X110142857Y-88409740D02*
X110000000Y-88457359D01*
X110000000Y-88457359D02*
X109761905Y-88457359D01*
X110904762Y-87885930D02*
X110809524Y-87838311D01*
X110809524Y-87838311D02*
X110761905Y-87790692D01*
X110761905Y-87790692D02*
X110714286Y-87695454D01*
X110714286Y-87695454D02*
X110714286Y-87647835D01*
X110714286Y-87647835D02*
X110761905Y-87552597D01*
X110761905Y-87552597D02*
X110809524Y-87504978D01*
X110809524Y-87504978D02*
X110904762Y-87457359D01*
X110904762Y-87457359D02*
X111095238Y-87457359D01*
X111095238Y-87457359D02*
X111190476Y-87504978D01*
X111190476Y-87504978D02*
X111238095Y-87552597D01*
X111238095Y-87552597D02*
X111285714Y-87647835D01*
X111285714Y-87647835D02*
X111285714Y-87695454D01*
X111285714Y-87695454D02*
X111238095Y-87790692D01*
X111238095Y-87790692D02*
X111190476Y-87838311D01*
X111190476Y-87838311D02*
X111095238Y-87885930D01*
X111095238Y-87885930D02*
X110904762Y-87885930D01*
X110904762Y-87885930D02*
X110809524Y-87933549D01*
X110809524Y-87933549D02*
X110761905Y-87981168D01*
X110761905Y-87981168D02*
X110714286Y-88076406D01*
X110714286Y-88076406D02*
X110714286Y-88266882D01*
X110714286Y-88266882D02*
X110761905Y-88362120D01*
X110761905Y-88362120D02*
X110809524Y-88409740D01*
X110809524Y-88409740D02*
X110904762Y-88457359D01*
X110904762Y-88457359D02*
X111095238Y-88457359D01*
X111095238Y-88457359D02*
X111190476Y-88409740D01*
X111190476Y-88409740D02*
X111238095Y-88362120D01*
X111238095Y-88362120D02*
X111285714Y-88266882D01*
X111285714Y-88266882D02*
X111285714Y-88076406D01*
X111285714Y-88076406D02*
X111238095Y-87981168D01*
X111238095Y-87981168D02*
X111190476Y-87933549D01*
X111190476Y-87933549D02*
X111095238Y-87885930D01*
X109285714Y-127954819D02*
X109285714Y-126954819D01*
X109285714Y-126954819D02*
X109523809Y-126954819D01*
X109523809Y-126954819D02*
X109666666Y-127002438D01*
X109666666Y-127002438D02*
X109761904Y-127097676D01*
X109761904Y-127097676D02*
X109809523Y-127192914D01*
X109809523Y-127192914D02*
X109857142Y-127383390D01*
X109857142Y-127383390D02*
X109857142Y-127526247D01*
X109857142Y-127526247D02*
X109809523Y-127716723D01*
X109809523Y-127716723D02*
X109761904Y-127811961D01*
X109761904Y-127811961D02*
X109666666Y-127907200D01*
X109666666Y-127907200D02*
X109523809Y-127954819D01*
X109523809Y-127954819D02*
X109285714Y-127954819D01*
X110238095Y-127050057D02*
X110285714Y-127002438D01*
X110285714Y-127002438D02*
X110380952Y-126954819D01*
X110380952Y-126954819D02*
X110619047Y-126954819D01*
X110619047Y-126954819D02*
X110714285Y-127002438D01*
X110714285Y-127002438D02*
X110761904Y-127050057D01*
X110761904Y-127050057D02*
X110809523Y-127145295D01*
X110809523Y-127145295D02*
X110809523Y-127240533D01*
X110809523Y-127240533D02*
X110761904Y-127383390D01*
X110761904Y-127383390D02*
X110190476Y-127954819D01*
X110190476Y-127954819D02*
X110809523Y-127954819D01*
X111428571Y-126954819D02*
X111523809Y-126954819D01*
X111523809Y-126954819D02*
X111619047Y-127002438D01*
X111619047Y-127002438D02*
X111666666Y-127050057D01*
X111666666Y-127050057D02*
X111714285Y-127145295D01*
X111714285Y-127145295D02*
X111761904Y-127335771D01*
X111761904Y-127335771D02*
X111761904Y-127573866D01*
X111761904Y-127573866D02*
X111714285Y-127764342D01*
X111714285Y-127764342D02*
X111666666Y-127859580D01*
X111666666Y-127859580D02*
X111619047Y-127907200D01*
X111619047Y-127907200D02*
X111523809Y-127954819D01*
X111523809Y-127954819D02*
X111428571Y-127954819D01*
X111428571Y-127954819D02*
X111333333Y-127907200D01*
X111333333Y-127907200D02*
X111285714Y-127859580D01*
X111285714Y-127859580D02*
X111238095Y-127764342D01*
X111238095Y-127764342D02*
X111190476Y-127573866D01*
X111190476Y-127573866D02*
X111190476Y-127335771D01*
X111190476Y-127335771D02*
X111238095Y-127145295D01*
X111238095Y-127145295D02*
X111285714Y-127050057D01*
X111285714Y-127050057D02*
X111333333Y-127002438D01*
X111333333Y-127002438D02*
X111428571Y-126954819D01*
D11*
X79956006Y-74249332D02*
X80016483Y-74297713D01*
X80016483Y-74297713D02*
X80076959Y-74442856D01*
X80076959Y-74442856D02*
X80076959Y-74539618D01*
X80076959Y-74539618D02*
X80016483Y-74684761D01*
X80016483Y-74684761D02*
X79895530Y-74781523D01*
X79895530Y-74781523D02*
X79774578Y-74829904D01*
X79774578Y-74829904D02*
X79532673Y-74878285D01*
X79532673Y-74878285D02*
X79351244Y-74878285D01*
X79351244Y-74878285D02*
X79109340Y-74829904D01*
X79109340Y-74829904D02*
X78988387Y-74781523D01*
X78988387Y-74781523D02*
X78867435Y-74684761D01*
X78867435Y-74684761D02*
X78806959Y-74539618D01*
X78806959Y-74539618D02*
X78806959Y-74442856D01*
X78806959Y-74442856D02*
X78867435Y-74297713D01*
X78867435Y-74297713D02*
X78927911Y-74249332D01*
X78927911Y-73862285D02*
X78867435Y-73813904D01*
X78867435Y-73813904D02*
X78806959Y-73717142D01*
X78806959Y-73717142D02*
X78806959Y-73475237D01*
X78806959Y-73475237D02*
X78867435Y-73378475D01*
X78867435Y-73378475D02*
X78927911Y-73330094D01*
X78927911Y-73330094D02*
X79048863Y-73281713D01*
X79048863Y-73281713D02*
X79169816Y-73281713D01*
X79169816Y-73281713D02*
X79351244Y-73330094D01*
X79351244Y-73330094D02*
X80076959Y-73910666D01*
X80076959Y-73910666D02*
X80076959Y-73281713D01*
D10*
X90761905Y-51954819D02*
X90761905Y-50954819D01*
X90761905Y-50954819D02*
X91000000Y-50954819D01*
X91000000Y-50954819D02*
X91142857Y-51002438D01*
X91142857Y-51002438D02*
X91238095Y-51097676D01*
X91238095Y-51097676D02*
X91285714Y-51192914D01*
X91285714Y-51192914D02*
X91333333Y-51383390D01*
X91333333Y-51383390D02*
X91333333Y-51526247D01*
X91333333Y-51526247D02*
X91285714Y-51716723D01*
X91285714Y-51716723D02*
X91238095Y-51811961D01*
X91238095Y-51811961D02*
X91142857Y-51907200D01*
X91142857Y-51907200D02*
X91000000Y-51954819D01*
X91000000Y-51954819D02*
X90761905Y-51954819D01*
X92285714Y-51954819D02*
X91714286Y-51954819D01*
X92000000Y-51954819D02*
X92000000Y-50954819D01*
X92000000Y-50954819D02*
X91904762Y-51097676D01*
X91904762Y-51097676D02*
X91809524Y-51192914D01*
X91809524Y-51192914D02*
X91714286Y-51240533D01*
X90761905Y-89957359D02*
X90761905Y-88957359D01*
X90761905Y-88957359D02*
X91000000Y-88957359D01*
X91000000Y-88957359D02*
X91142857Y-89004978D01*
X91142857Y-89004978D02*
X91238095Y-89100216D01*
X91238095Y-89100216D02*
X91285714Y-89195454D01*
X91285714Y-89195454D02*
X91333333Y-89385930D01*
X91333333Y-89385930D02*
X91333333Y-89528787D01*
X91333333Y-89528787D02*
X91285714Y-89719263D01*
X91285714Y-89719263D02*
X91238095Y-89814501D01*
X91238095Y-89814501D02*
X91142857Y-89909740D01*
X91142857Y-89909740D02*
X91000000Y-89957359D01*
X91000000Y-89957359D02*
X90761905Y-89957359D01*
X91666667Y-88957359D02*
X92285714Y-88957359D01*
X92285714Y-88957359D02*
X91952381Y-89338311D01*
X91952381Y-89338311D02*
X92095238Y-89338311D01*
X92095238Y-89338311D02*
X92190476Y-89385930D01*
X92190476Y-89385930D02*
X92238095Y-89433549D01*
X92238095Y-89433549D02*
X92285714Y-89528787D01*
X92285714Y-89528787D02*
X92285714Y-89766882D01*
X92285714Y-89766882D02*
X92238095Y-89862120D01*
X92238095Y-89862120D02*
X92190476Y-89909740D01*
X92190476Y-89909740D02*
X92095238Y-89957359D01*
X92095238Y-89957359D02*
X91809524Y-89957359D01*
X91809524Y-89957359D02*
X91714286Y-89909740D01*
X91714286Y-89909740D02*
X91666667Y-89862120D01*
X166285714Y-89954819D02*
X166285714Y-88954819D01*
X166285714Y-88954819D02*
X166523809Y-88954819D01*
X166523809Y-88954819D02*
X166666666Y-89002438D01*
X166666666Y-89002438D02*
X166761904Y-89097676D01*
X166761904Y-89097676D02*
X166809523Y-89192914D01*
X166809523Y-89192914D02*
X166857142Y-89383390D01*
X166857142Y-89383390D02*
X166857142Y-89526247D01*
X166857142Y-89526247D02*
X166809523Y-89716723D01*
X166809523Y-89716723D02*
X166761904Y-89811961D01*
X166761904Y-89811961D02*
X166666666Y-89907200D01*
X166666666Y-89907200D02*
X166523809Y-89954819D01*
X166523809Y-89954819D02*
X166285714Y-89954819D01*
X167238095Y-89050057D02*
X167285714Y-89002438D01*
X167285714Y-89002438D02*
X167380952Y-88954819D01*
X167380952Y-88954819D02*
X167619047Y-88954819D01*
X167619047Y-88954819D02*
X167714285Y-89002438D01*
X167714285Y-89002438D02*
X167761904Y-89050057D01*
X167761904Y-89050057D02*
X167809523Y-89145295D01*
X167809523Y-89145295D02*
X167809523Y-89240533D01*
X167809523Y-89240533D02*
X167761904Y-89383390D01*
X167761904Y-89383390D02*
X167190476Y-89954819D01*
X167190476Y-89954819D02*
X167809523Y-89954819D01*
X168142857Y-88954819D02*
X168761904Y-88954819D01*
X168761904Y-88954819D02*
X168428571Y-89335771D01*
X168428571Y-89335771D02*
X168571428Y-89335771D01*
X168571428Y-89335771D02*
X168666666Y-89383390D01*
X168666666Y-89383390D02*
X168714285Y-89431009D01*
X168714285Y-89431009D02*
X168761904Y-89526247D01*
X168761904Y-89526247D02*
X168761904Y-89764342D01*
X168761904Y-89764342D02*
X168714285Y-89859580D01*
X168714285Y-89859580D02*
X168666666Y-89907200D01*
X168666666Y-89907200D02*
X168571428Y-89954819D01*
X168571428Y-89954819D02*
X168285714Y-89954819D01*
X168285714Y-89954819D02*
X168190476Y-89907200D01*
X168190476Y-89907200D02*
X168142857Y-89859580D01*
X118714286Y-78754819D02*
X119285714Y-78754819D01*
X119000000Y-79754819D02*
X119000000Y-78754819D01*
X119619048Y-79754819D02*
X119619048Y-78754819D01*
X119619048Y-79231009D02*
X120190476Y-79231009D01*
X120190476Y-79754819D02*
X120190476Y-78754819D01*
X121142857Y-78754819D02*
X120666667Y-78754819D01*
X120666667Y-78754819D02*
X120619048Y-79231009D01*
X120619048Y-79231009D02*
X120666667Y-79183390D01*
X120666667Y-79183390D02*
X120761905Y-79135771D01*
X120761905Y-79135771D02*
X121000000Y-79135771D01*
X121000000Y-79135771D02*
X121095238Y-79183390D01*
X121095238Y-79183390D02*
X121142857Y-79231009D01*
X121142857Y-79231009D02*
X121190476Y-79326247D01*
X121190476Y-79326247D02*
X121190476Y-79564342D01*
X121190476Y-79564342D02*
X121142857Y-79659580D01*
X121142857Y-79659580D02*
X121095238Y-79707200D01*
X121095238Y-79707200D02*
X121000000Y-79754819D01*
X121000000Y-79754819D02*
X120761905Y-79754819D01*
X120761905Y-79754819D02*
X120666667Y-79707200D01*
X120666667Y-79707200D02*
X120619048Y-79659580D01*
X128285714Y-86957359D02*
X128285714Y-85957359D01*
X128285714Y-85957359D02*
X128523809Y-85957359D01*
X128523809Y-85957359D02*
X128666666Y-86004978D01*
X128666666Y-86004978D02*
X128761904Y-86100216D01*
X128761904Y-86100216D02*
X128809523Y-86195454D01*
X128809523Y-86195454D02*
X128857142Y-86385930D01*
X128857142Y-86385930D02*
X128857142Y-86528787D01*
X128857142Y-86528787D02*
X128809523Y-86719263D01*
X128809523Y-86719263D02*
X128761904Y-86814501D01*
X128761904Y-86814501D02*
X128666666Y-86909740D01*
X128666666Y-86909740D02*
X128523809Y-86957359D01*
X128523809Y-86957359D02*
X128285714Y-86957359D01*
X129809523Y-86957359D02*
X129238095Y-86957359D01*
X129523809Y-86957359D02*
X129523809Y-85957359D01*
X129523809Y-85957359D02*
X129428571Y-86100216D01*
X129428571Y-86100216D02*
X129333333Y-86195454D01*
X129333333Y-86195454D02*
X129238095Y-86243073D01*
X130142857Y-85957359D02*
X130761904Y-85957359D01*
X130761904Y-85957359D02*
X130428571Y-86338311D01*
X130428571Y-86338311D02*
X130571428Y-86338311D01*
X130571428Y-86338311D02*
X130666666Y-86385930D01*
X130666666Y-86385930D02*
X130714285Y-86433549D01*
X130714285Y-86433549D02*
X130761904Y-86528787D01*
X130761904Y-86528787D02*
X130761904Y-86766882D01*
X130761904Y-86766882D02*
X130714285Y-86862120D01*
X130714285Y-86862120D02*
X130666666Y-86909740D01*
X130666666Y-86909740D02*
X130571428Y-86957359D01*
X130571428Y-86957359D02*
X130285714Y-86957359D01*
X130285714Y-86957359D02*
X130190476Y-86909740D01*
X130190476Y-86909740D02*
X130142857Y-86862120D01*
D12*
%TO.C,R2*%
X77630000Y-99420000D02*
X77630000Y-105960000D01*
X77630000Y-105960000D02*
X77960000Y-105960000D01*
X77960000Y-99420000D02*
X77630000Y-99420000D01*
X80040000Y-99420000D02*
X80370000Y-99420000D01*
X80370000Y-99420000D02*
X80370000Y-105960000D01*
X80370000Y-105960000D02*
X80040000Y-105960000D01*
D10*
%TO.C,D22*%
X163800000Y-69002540D02*
X164700000Y-69002540D01*
X167000000Y-68302540D02*
X167000000Y-69702540D01*
X167000000Y-69002540D02*
X167900000Y-68302540D01*
X167900000Y-68302540D02*
X167900000Y-69702540D01*
X167900000Y-69702540D02*
X167000000Y-69002540D01*
X170300000Y-69002540D02*
X171300000Y-69002540D01*
%TO.C,D6*%
X106800000Y-48500000D02*
X107700000Y-48500000D01*
X110000000Y-47800000D02*
X110000000Y-49200000D01*
X110000000Y-48500000D02*
X110900000Y-47800000D01*
X110900000Y-47800000D02*
X110900000Y-49200000D01*
X110900000Y-49200000D02*
X110000000Y-48500000D01*
X113300000Y-48500000D02*
X114300000Y-48500000D01*
%TO.C,D15*%
X87800000Y-126000000D02*
X88700000Y-126000000D01*
X91000000Y-125300000D02*
X91000000Y-126700000D01*
X91000000Y-126000000D02*
X91900000Y-125300000D01*
X91900000Y-125300000D02*
X91900000Y-126700000D01*
X91900000Y-126700000D02*
X91000000Y-126000000D01*
X94300000Y-126000000D02*
X95300000Y-126000000D01*
%TO.C,D24*%
X163800000Y-107000000D02*
X164700000Y-107000000D01*
X167000000Y-106300000D02*
X167000000Y-107700000D01*
X167000000Y-107000000D02*
X167900000Y-106300000D01*
X167900000Y-106300000D02*
X167900000Y-107700000D01*
X167900000Y-107700000D02*
X167000000Y-107000000D01*
X170300000Y-107000000D02*
X171300000Y-107000000D01*
%TO.C,D10*%
X68800000Y-126002540D02*
X69700000Y-126002540D01*
X72000000Y-125302540D02*
X72000000Y-126702540D01*
X72000001Y-126002540D02*
X72900000Y-125302540D01*
X72900000Y-125302540D02*
X72900000Y-126702540D01*
X72900000Y-126702540D02*
X72000001Y-126002540D01*
X75300000Y-126002540D02*
X76300000Y-126002540D01*
%TO.C,D4*%
X87800000Y-107002540D02*
X88700000Y-107002540D01*
X91000000Y-106302540D02*
X91000000Y-107702540D01*
X91000000Y-107002540D02*
X91900000Y-106302540D01*
X91900000Y-106302540D02*
X91900000Y-107702540D01*
X91900000Y-107702540D02*
X91000000Y-107002540D01*
X94300000Y-107002540D02*
X95300000Y-107002540D01*
D12*
%TO.C,SW30*%
X59775675Y-59469765D02*
X62575675Y-59469765D01*
X59775675Y-64369765D02*
X59775675Y-59469765D01*
X59775675Y-72869765D02*
X59775675Y-67969765D01*
X62375675Y-72869765D02*
X59775675Y-72869765D01*
X66075675Y-65669765D02*
X66075675Y-66669765D01*
X66575675Y-66169765D02*
X65575675Y-66169765D01*
X67375675Y-72869765D02*
X64775675Y-72869765D01*
X69875675Y-58669765D02*
X70175675Y-58369765D01*
X70175675Y-58369765D02*
X70175675Y-58969765D01*
X70175675Y-58969765D02*
X69875675Y-58669765D01*
X72375675Y-59469765D02*
X69875675Y-59469765D01*
X72375675Y-64269765D02*
X72375675Y-59469765D01*
X72375675Y-67969765D02*
X72375675Y-72869765D01*
X72375675Y-72869765D02*
X69775675Y-72869765D01*
X69075675Y-66169765D02*
G75*
G02*
X63075675Y-66169765I-3000000J0D01*
G01*
X63075675Y-66169765D02*
G75*
G02*
X69075675Y-66169765I3000000J0D01*
G01*
D10*
%TO.C,D19*%
X144800000Y-105502540D02*
X145700000Y-105502540D01*
X148000000Y-104802540D02*
X148000000Y-106202540D01*
X148000000Y-105502540D02*
X148900000Y-104802540D01*
X148900000Y-104802540D02*
X148900000Y-106202540D01*
X148900000Y-106202540D02*
X148000000Y-105502540D01*
X151300000Y-105502540D02*
X152300000Y-105502540D01*
%TO.C,D9*%
X106800000Y-105502540D02*
X107700000Y-105502540D01*
X110000000Y-104802540D02*
X110000000Y-106202540D01*
X110000000Y-105502540D02*
X110900000Y-104802540D01*
X110900000Y-104802540D02*
X110900000Y-106202540D01*
X110900000Y-106202540D02*
X110000000Y-105502540D01*
X113300000Y-105502540D02*
X114300000Y-105502540D01*
%TO.C,JP2*%
X59357760Y-45611000D02*
X61643760Y-45611000D01*
X59357760Y-47389000D02*
X59357760Y-45611000D01*
X61643760Y-45611000D02*
X61643760Y-47389000D01*
X61643760Y-47389000D02*
X59357760Y-47389000D01*
%TO.C,D17*%
X144800000Y-67500000D02*
X145700000Y-67500000D01*
X148000000Y-66800000D02*
X148000000Y-68200000D01*
X148000000Y-67500000D02*
X148900000Y-66800000D01*
X148900000Y-66800000D02*
X148900000Y-68200000D01*
X148900000Y-68200000D02*
X148000000Y-67500000D01*
X151300000Y-67500000D02*
X152300000Y-67500000D01*
%TO.C,D16*%
X144800000Y-48500000D02*
X145700000Y-48500000D01*
X148000000Y-47800000D02*
X148000000Y-49200000D01*
X148000000Y-48500000D02*
X148900000Y-47800000D01*
X148900000Y-47800000D02*
X148900000Y-49200000D01*
X148900000Y-49200000D02*
X148000000Y-48500000D01*
X151300000Y-48500000D02*
X152300000Y-48500000D01*
%TO.C,JP11*%
X57111000Y-83356620D02*
X58889000Y-83356620D01*
X57111000Y-85642620D02*
X57111000Y-83356620D01*
X58889000Y-83356620D02*
X58889000Y-85642620D01*
X58889000Y-85642620D02*
X57111000Y-85642620D01*
%TO.C,D2*%
X88000000Y-69000000D02*
X88900000Y-69000000D01*
X91200000Y-68300000D02*
X91200000Y-69700000D01*
X91200000Y-69000000D02*
X92100000Y-68300000D01*
X92100000Y-68300000D02*
X92100000Y-69700000D01*
X92100000Y-69700000D02*
X91200000Y-69000000D01*
X94500000Y-69000000D02*
X95500000Y-69000000D01*
%TO.C,P1*%
X61190000Y-86229620D02*
X71350000Y-86229620D01*
X61190000Y-88769620D02*
X61190000Y-86229620D01*
X61190000Y-88769620D02*
X71350000Y-88769620D01*
X71350000Y-86229620D02*
X71350000Y-88769620D01*
%TO.C,JP3*%
X61611000Y-83357000D02*
X63389000Y-83357000D01*
X61611000Y-85643000D02*
X61611000Y-83357000D01*
X63389000Y-83357000D02*
X63389000Y-85643000D01*
X63389000Y-85643000D02*
X61611000Y-85643000D01*
%TO.C,D12*%
X125800000Y-66000000D02*
X126700000Y-66000000D01*
X129000000Y-65300000D02*
X129000000Y-66700000D01*
X129000000Y-66000000D02*
X129900000Y-65300000D01*
X129900000Y-65300000D02*
X129900000Y-66700000D01*
X129900000Y-66700000D02*
X129000000Y-66000000D01*
X132300000Y-66000000D02*
X133300000Y-66000000D01*
%TO.C,D18*%
X144800000Y-86500000D02*
X145700000Y-86500000D01*
X148000000Y-85800000D02*
X148000000Y-87200000D01*
X148000000Y-86500000D02*
X148900000Y-85800000D01*
X148900000Y-85800000D02*
X148900000Y-87200000D01*
X148900000Y-87200000D02*
X148000000Y-86500000D01*
X151300000Y-86500000D02*
X152300000Y-86500000D01*
%TO.C,D5*%
X62800000Y-107000000D02*
X63700000Y-107000000D01*
X66000000Y-106300000D02*
X66000000Y-107700000D01*
X66000000Y-107000000D02*
X66900000Y-106300000D01*
X66900000Y-106300000D02*
X66900000Y-107700000D01*
X66900000Y-107700000D02*
X66000000Y-107000000D01*
X69300000Y-107000000D02*
X70300000Y-107000000D01*
%TO.C,D11*%
X125800000Y-47000000D02*
X126700000Y-47000000D01*
X129000000Y-46300000D02*
X129000000Y-47700000D01*
X129000000Y-47000000D02*
X129900000Y-46300000D01*
X129900000Y-46300000D02*
X129900000Y-47700000D01*
X129900000Y-47700000D02*
X129000000Y-47000000D01*
X132300000Y-47000000D02*
X133300000Y-47000000D01*
%TO.C,D28*%
X182800000Y-89500000D02*
X183700000Y-89500000D01*
X186000000Y-88800000D02*
X186000000Y-90200000D01*
X186000000Y-89500000D02*
X186900000Y-88800000D01*
X186900000Y-88800000D02*
X186900000Y-90200000D01*
X186900000Y-90200000D02*
X186000000Y-89500000D01*
X189300000Y-89500000D02*
X190300000Y-89500000D01*
%TO.C,D27*%
X182800000Y-70502540D02*
X183700000Y-70502540D01*
X186000000Y-69802540D02*
X186000000Y-71202540D01*
X186000000Y-70502540D02*
X186900000Y-69802540D01*
X186900000Y-69802540D02*
X186900000Y-71202540D01*
X186900000Y-71202540D02*
X186000000Y-70502540D01*
X189300000Y-70502540D02*
X190300000Y-70502540D01*
%TO.C,D25*%
X125800000Y-126000000D02*
X126700000Y-126000000D01*
X129000000Y-125300000D02*
X129000000Y-126700000D01*
X129000000Y-126000000D02*
X129900000Y-125300000D01*
X129900000Y-125300000D02*
X129900000Y-126700000D01*
X129900000Y-126700000D02*
X129000000Y-126000000D01*
X132300000Y-126000000D02*
X133300000Y-126000000D01*
%TO.C,D21*%
X163800000Y-50000000D02*
X164700000Y-50000000D01*
X167000000Y-49300000D02*
X167000000Y-50700000D01*
X167000000Y-50000000D02*
X167900000Y-49300000D01*
X167900000Y-49300000D02*
X167900000Y-50700000D01*
X167900000Y-50700000D02*
X167000000Y-50000000D01*
X170300000Y-50000000D02*
X171300000Y-50000000D01*
%TO.C,C1*%
X78200000Y-57380000D02*
X80800000Y-57380000D01*
X78200000Y-63780000D02*
X78200000Y-57380000D01*
X79500000Y-57380000D02*
X79500000Y-56680000D01*
X79500000Y-63780000D02*
X79500000Y-64480000D01*
X80800000Y-57380000D02*
X80800000Y-63780000D01*
X80800000Y-63780000D02*
X78200000Y-63780000D01*
%TO.C,U1*%
X57730000Y-49190000D02*
X57730000Y-82210000D01*
X57730000Y-51730000D02*
X57730000Y-82210000D01*
X57730000Y-82210000D02*
X60270000Y-82210000D01*
X60270000Y-51730000D02*
X57730000Y-51730000D01*
X60270000Y-82210000D02*
X60270000Y-51730000D01*
X72970000Y-51730000D02*
X72970000Y-82210000D01*
X72970000Y-82210000D02*
X75510000Y-82210000D01*
X75510000Y-49190000D02*
X57730000Y-49190000D01*
X75510000Y-51730000D02*
X72970000Y-51730000D01*
X75510000Y-82210000D02*
X75510000Y-49190000D01*
X75510000Y-82210000D02*
X75510000Y-51730000D01*
%TO.C,JP4*%
X64111000Y-83357000D02*
X65889000Y-83357000D01*
X64111000Y-85643000D02*
X64111000Y-83357000D01*
X65889000Y-83357000D02*
X65889000Y-85643000D01*
X65889000Y-85643000D02*
X64111000Y-85643000D01*
D12*
%TO.C,R1*%
X77630000Y-88730000D02*
X77960000Y-88730000D01*
X77630000Y-95270000D02*
X77630000Y-88730000D01*
X77960000Y-95270000D02*
X77630000Y-95270000D01*
X80040000Y-95270000D02*
X80370000Y-95270000D01*
X80370000Y-88730000D02*
X80040000Y-88730000D01*
X80370000Y-95270000D02*
X80370000Y-88730000D01*
D10*
%TO.C,D26*%
X182800000Y-51502540D02*
X183700000Y-51502540D01*
X186000000Y-50802540D02*
X186000000Y-52202540D01*
X186000000Y-51502540D02*
X186900000Y-50802540D01*
X186900000Y-50802540D02*
X186900000Y-52202540D01*
X186900000Y-52202540D02*
X186000000Y-51502540D01*
X189300000Y-51502540D02*
X190300000Y-51502540D01*
%TO.C,JP6*%
X69111000Y-83357000D02*
X70889000Y-83357000D01*
X69111000Y-85643000D02*
X69111000Y-83357000D01*
X70889000Y-83357000D02*
X70889000Y-85643000D01*
X70889000Y-85643000D02*
X69111000Y-85643000D01*
%TO.C,D29*%
X182800000Y-108502540D02*
X183700000Y-108502540D01*
X186000000Y-107802540D02*
X186000000Y-109202540D01*
X186000000Y-108502540D02*
X186900000Y-107802540D01*
X186900000Y-107802540D02*
X186900000Y-109202540D01*
X186900000Y-109202540D02*
X186000000Y-108502540D01*
X189300000Y-108502540D02*
X190300000Y-108502540D01*
%TO.C,D7*%
X106800000Y-67502540D02*
X107700000Y-67502540D01*
X110000000Y-66802540D02*
X110000000Y-68202540D01*
X110000000Y-67502540D02*
X110900000Y-66802540D01*
X110900000Y-66802540D02*
X110900000Y-68202540D01*
X110900000Y-68202540D02*
X110000000Y-67502540D01*
X113300000Y-67502540D02*
X114300000Y-67502540D01*
%TO.C,D30*%
X62600000Y-91500000D02*
X63500000Y-91500000D01*
X65800000Y-90800000D02*
X65800000Y-92200000D01*
X65800000Y-91500000D02*
X66700000Y-90800000D01*
X66700000Y-90800000D02*
X66700000Y-92200000D01*
X66700000Y-92200000D02*
X65800000Y-91500000D01*
X69100000Y-91500000D02*
X70100000Y-91500000D01*
%TO.C,D14*%
X125800000Y-104000000D02*
X126700000Y-104000000D01*
X129000000Y-103300000D02*
X129000000Y-104700000D01*
X129000000Y-104000000D02*
X129900000Y-103300000D01*
X129900000Y-103300000D02*
X129900000Y-104700000D01*
X129900000Y-104700000D02*
X129000000Y-104000000D01*
X132300000Y-104000000D02*
X133300000Y-104000000D01*
%TO.C,D8*%
X106800000Y-86502540D02*
X107700000Y-86502540D01*
X110000000Y-85802540D02*
X110000000Y-87202540D01*
X110000000Y-86502540D02*
X110900000Y-85802540D01*
X110900000Y-85802540D02*
X110900000Y-87202540D01*
X110900000Y-87202540D02*
X110000000Y-86502540D01*
X113300000Y-86502540D02*
X114300000Y-86502540D01*
%TO.C,JP5*%
X66611000Y-83357000D02*
X68389000Y-83357000D01*
X66611000Y-85643000D02*
X66611000Y-83357000D01*
X68389000Y-83357000D02*
X68389000Y-85643000D01*
X68389000Y-85643000D02*
X66611000Y-85643000D01*
%TO.C,J1*%
X55300000Y-100625000D02*
X55300000Y-95625000D01*
X57200000Y-95125000D02*
X57200000Y-95625000D01*
X57200000Y-95125000D02*
X69200000Y-95125000D01*
X57200000Y-95625000D02*
X55300000Y-95625000D01*
X57200000Y-100625000D02*
X55300000Y-100625000D01*
X57200000Y-101125000D02*
X57200000Y-100625000D01*
X69200000Y-95125000D02*
X69200000Y-101125000D01*
X69200000Y-101125000D02*
X57200000Y-101125000D01*
%TO.C,D20*%
X106800000Y-126000000D02*
X107700000Y-126000000D01*
X110000000Y-125300000D02*
X110000000Y-126700000D01*
X110000000Y-126000000D02*
X110900000Y-125300000D01*
X110900000Y-125300000D02*
X110900000Y-126700000D01*
X110900000Y-126700000D02*
X110000000Y-126000000D01*
X113300000Y-126000000D02*
X114300000Y-126000000D01*
%TO.C,C2*%
X78200000Y-70880000D02*
X80800000Y-70880000D01*
X78200000Y-77280000D02*
X78200000Y-70880000D01*
X79500000Y-70880000D02*
X79500000Y-70180000D01*
X79500000Y-77280000D02*
X79500000Y-77980000D01*
X80800000Y-70880000D02*
X80800000Y-77280000D01*
X80800000Y-77280000D02*
X78200000Y-77280000D01*
%TO.C,D1*%
X87800000Y-50000000D02*
X88700000Y-50000000D01*
X91000000Y-49300000D02*
X91000000Y-50700000D01*
X91000000Y-50000000D02*
X91900000Y-49300000D01*
X91900000Y-49300000D02*
X91900000Y-50700000D01*
X91900000Y-50700000D02*
X91000000Y-50000000D01*
X94300000Y-50000000D02*
X95300000Y-50000000D01*
%TO.C,D3*%
X87800000Y-88002540D02*
X88700000Y-88002540D01*
X91000000Y-87302540D02*
X91000000Y-88702540D01*
X91000000Y-88002540D02*
X91900000Y-87302540D01*
X91900000Y-87302540D02*
X91900000Y-88702540D01*
X91900000Y-88702540D02*
X91000000Y-88002540D01*
X94300000Y-88002540D02*
X95300000Y-88002540D01*
%TO.C,D23*%
X163800000Y-88000000D02*
X164700000Y-88000000D01*
X167000000Y-87300000D02*
X167000000Y-88700000D01*
X167000000Y-88000000D02*
X167900000Y-87300000D01*
X167900000Y-87300000D02*
X167900000Y-88700000D01*
X167900000Y-88700000D02*
X167000000Y-88000000D01*
X170300000Y-88000000D02*
X171300000Y-88000000D01*
%TO.C,D13*%
X125800000Y-85002540D02*
X126700000Y-85002540D01*
X129000000Y-84302540D02*
X129000000Y-85702540D01*
X129000000Y-85002540D02*
X129900000Y-84302540D01*
X129900000Y-84302540D02*
X129900000Y-85702540D01*
X129900000Y-85702540D02*
X129000000Y-85002540D01*
X132300000Y-85002540D02*
X133300000Y-85002540D01*
%TD*%
D13*
%TO.C,P1*%
X62460000Y-87499620D03*
X65000000Y-87499620D03*
X67540000Y-87499620D03*
X70080000Y-87499620D03*
%TD*%
D14*
%TO.C,U1*%
X57701185Y-51804255D03*
X57701185Y-54344255D03*
X57701185Y-56884255D03*
X57701185Y-59424255D03*
X57701185Y-61964255D03*
X57701185Y-64504255D03*
X57701185Y-67044255D03*
X57701185Y-69584255D03*
X57701185Y-72124255D03*
X57701185Y-74664255D03*
X57701185Y-77204255D03*
X57701185Y-79744255D03*
X72941185Y-79744255D03*
X72941185Y-77204255D03*
X72941185Y-74664255D03*
X72941185Y-72124255D03*
X72941185Y-69584255D03*
X72941185Y-67044255D03*
X72941185Y-64504255D03*
X72941185Y-61964255D03*
X72941185Y-59424255D03*
X72941185Y-56884255D03*
X72941185Y-54344255D03*
X72941185Y-51804255D03*
%TD*%
D15*
%TO.C,J1*%
X58700000Y-99875000D03*
X65700000Y-99875000D03*
X58700000Y-98125000D03*
X65700000Y-98125000D03*
D16*
X63500000Y-101975000D03*
X63500000Y-96025000D03*
X60500000Y-101975000D03*
X60500000Y-96025000D03*
X69000000Y-100225000D03*
X69000000Y-97775000D03*
X67500000Y-101975000D03*
X67500000Y-96025000D03*
%TD*%
M02*
