M48
; DRILL file {KiCad 8.0.0-8.0.0-1~ubuntu23.10.1} date 2024-03-08T09:59:04+0200
; FORMAT={-:-/ absolute / inch / decimal}
; #@! TF.CreationDate,2024-03-08T09:59:04+02:00
; #@! TF.GenerationSoftware,Kicad,Pcbnew,8.0.0-8.0.0-1~ubuntu23.10.1
; #@! TF.FileFunction,NonPlated,1,2,NPTH
FMAT,2
INCH
; #@! TA.AperFunction,NonPlated,NPTH,ComponentDrill
T1C0.0472
; #@! TA.AperFunction,NonPlated,NPTH,ComponentDrill
T2C0.0670
; #@! TA.AperFunction,NonPlated,NPTH,ComponentDrill
T3C0.1457
; #@! TA.AperFunction,NonPlated,NPTH,ComponentDrill
T4C0.1969
%
G90
G05
T1
X2.311Y-3.8632
X2.311Y-3.9321
X2.5866Y-3.8632
X2.5866Y-3.9321
T2
X2.4016Y-4.5866
X2.6417Y-5.3346
X2.8346Y-4.5866
X3.0748Y-5.3346
X3.3858Y-2.3425
X3.3858Y-3.0906
X3.3858Y-3.8386
X3.3858Y-4.5866
X3.3858Y-5.3346
X3.8189Y-2.3425
X3.8189Y-3.0906
X3.8189Y-3.8386
X3.8189Y-4.5866
X3.8189Y-5.3346
X4.1339Y-2.2835
X4.1339Y-3.0315
X4.1339Y-3.7795
X4.1339Y-4.5276
X4.1339Y-5.3346
X4.5669Y-2.2835
X4.5669Y-3.0315
X4.5669Y-3.7795
X4.5669Y-4.5276
X4.5669Y-5.3346
X4.8819Y-2.2244
X4.8819Y-2.9724
X4.8819Y-3.7205
X4.8819Y-4.4685
X4.8819Y-5.3346
X5.315Y-2.2244
X5.315Y-2.9724
X5.315Y-3.7205
X5.315Y-4.4685
X5.315Y-5.3346
X5.6299Y-2.2835
X5.6299Y-3.0315
X5.6299Y-3.7835
X5.6299Y-4.5276
X6.063Y-2.2835
X6.063Y-3.0315
X6.063Y-3.7835
X6.063Y-4.5276
X6.378Y-2.3425
X6.378Y-3.0906
X6.378Y-3.8386
X6.378Y-4.5866
X6.811Y-2.3425
X6.811Y-3.0906
X6.811Y-3.8386
X6.811Y-4.5866
X7.126Y-3.1496
X7.126Y-3.8976
X7.126Y-4.6457
X7.1299Y-2.4016
X7.5591Y-3.1496
X7.5591Y-3.8976
X7.5591Y-4.6457
X7.563Y-2.4016
T3
X2.3228Y-5.4724
X3.1299Y-1.9094
X4.7244Y-3.3071
X6.9685Y-4.8228
X6.9882Y-1.9094
T4
X2.6181Y-4.5866
X2.8583Y-5.3346
X3.6024Y-2.3425
X3.6024Y-3.0906
X3.6024Y-3.8386
X3.6024Y-4.5866
X3.6024Y-5.3346
X4.3504Y-2.2835
X4.3504Y-3.0315
X4.3504Y-3.7795
X4.3504Y-4.5276
X4.3504Y-5.3346
X5.0984Y-2.2244
X5.0984Y-2.9724
X5.0984Y-3.7205
X5.0984Y-4.4685
X5.0984Y-5.3346
X5.8465Y-2.2835
X5.8465Y-3.0315
X5.8465Y-3.7835
X5.8465Y-4.5276
X6.5945Y-2.3425
X6.5945Y-3.0906
X6.5945Y-3.8386
X6.5945Y-4.5866
X7.3425Y-3.1496
X7.3425Y-3.8976
X7.3425Y-4.6457
X7.3465Y-2.4016
M30
